<svg width="114" height="45" viewBox="0 0 114 45" fill="none" xmlns="http://www.w3.org/2000/svg">
<rect width="48" height="45" rx="8" fill="#2A9D66"/>
<g clip-path="url(#clip0)">
<path fill-rule="evenodd" clip-rule="evenodd" d="M23.2895 7.30313C23.6042 7.11627 23.9959 7.11627 24.3106 7.30313L36.1106 14.3094C36.414 14.4896 36.6 14.8163 36.6 15.1692V29.2308C36.6 29.5837 36.414 29.9104 36.1106 30.0906L25.3106 36.5031C24.644 36.8989 23.8 36.4185 23.8 35.6433V33.6264C23.8 33.2735 23.986 32.9467 24.2895 32.7665L32.4534 27.9192C32.7569 27.739 32.9429 27.4122 32.9429 27.0593V17.3405C32.9429 16.9877 32.757 16.661 32.4537 16.4808L21.5946 10.0289C20.9423 9.64125 20.9424 8.69673 21.5949 8.30931L23.2895 7.30313Z" fill="#F5F7FA"/>
<path fill-rule="evenodd" clip-rule="evenodd" d="M11 29.2308C11 29.5837 11.186 29.9105 11.4895 30.0907L13.1466 31.0746C13.8132 31.4704 14.6571 30.99 14.6571 30.2147V17.3407C14.6571 16.9878 14.8432 16.661 15.1466 16.4809L15.9828 15.9844C16.2976 15.7975 16.6894 15.7975 17.0042 15.9846L25.1394 20.8186C25.4427 20.9988 25.6286 21.3255 25.6286 21.6783L25.6286 26.3548C25.6286 27.1279 26.4684 27.6086 27.1351 27.217L28.7922 26.2435C29.0979 26.0639 29.2857 25.7358 29.2857 25.3813V19.507C29.2857 19.1541 29.0997 18.8273 28.7963 18.6472L17.0019 11.6428C16.6871 11.4559 16.2954 11.4559 15.9807 11.6428L11.4895 14.3094C11.186 14.4896 11 14.8164 11 15.1693V29.2308Z" fill="#F5F7FA"/>
<path fill-rule="evenodd" clip-rule="evenodd" d="M18.3145 33.5738C18.3145 33.9267 18.5005 34.2534 18.8039 34.4336L20.4611 35.4175C21.1277 35.8133 21.9716 35.3329 21.9716 34.5577V31.3618C21.9716 31.0088 21.7855 30.682 21.482 30.5019L19.8248 29.5184C19.1582 29.1228 18.3145 29.6032 18.3145 30.3784V33.5738Z" fill="#F5F7FA"/>
<path fill-rule="evenodd" clip-rule="evenodd" d="M18 24.6674C18 25.057 18.2262 25.4111 18.5798 25.5748L20.2369 26.3423C20.8996 26.6492 21.6572 26.1652 21.6572 25.4348V23.3319C21.6572 22.9423 21.4308 22.5881 21.0772 22.4244L19.4201 21.6573C18.7574 21.3506 18 21.8346 18 22.5648V24.6674Z" fill="#F5F7FA"/>
</g>
<path d="M70.426 23H64.576V21.452L66.142 20.732V12.416L64.576 11.696V10.148H70.426V11.696L68.86 12.416V20.732L70.426 21.452V23ZM83.2721 16.448C83.2721 18.62 82.6541 20.258 81.4181 21.362C80.1941 22.454 78.4721 23 76.2521 23H72.6161V10.148H76.6481C77.9921 10.148 79.1561 10.388 80.1401 10.868C81.1361 11.348 81.9041 12.056 82.4441 12.992C82.9961 13.916 83.2721 15.068 83.2721 16.448ZM80.4461 16.52C80.4461 15.092 80.1341 14.048 79.5101 13.388C78.8861 12.716 77.9801 12.38 76.7921 12.38H75.3341V20.75H76.5041C79.1321 20.75 80.4461 19.34 80.4461 16.52ZM91.3763 23L88.2803 12.92H88.2083C88.2203 13.16 88.2383 13.52 88.2623 14C88.2863 14.48 88.3103 14.996 88.3343 15.548C88.3583 16.088 88.3703 16.58 88.3703 17.024V23H85.9403V10.148H89.6483L92.6903 19.976H92.7443L95.9663 10.148H99.6743V23H97.1363V16.916C97.1363 16.508 97.1423 16.04 97.1543 15.512C97.1783 14.984 97.1963 14.486 97.2083 14.018C97.2323 13.538 97.2503 13.178 97.2623 12.938H97.1903L93.8783 23H91.3763ZM110.787 23L109.851 19.94H105.171L104.235 23H101.301L105.837 10.094H109.167L113.721 23H110.787ZM108.267 14.666C108.207 14.462 108.129 14.204 108.033 13.892C107.937 13.58 107.841 13.262 107.745 12.938C107.649 12.614 107.571 12.332 107.511 12.092C107.451 12.332 107.367 12.632 107.259 12.992C107.163 13.34 107.067 13.676 106.971 14C106.887 14.312 106.821 14.534 106.773 14.666L105.855 17.654H109.203L108.267 14.666Z" fill="#F5F7FA"/>
<path d="M64.837 36V29.574H65.989V35.028H68.671V36H64.837ZM73.3085 36H72.1565V30.546H70.3115V29.574H75.1535V30.546H73.3085V36ZM82.7883 32.724C82.7883 33.81 82.4853 34.629 81.8793 35.181C81.2733 35.727 80.4273 36 79.3413 36H77.5323V29.574H79.5303C80.1903 29.574 80.7633 29.694 81.2493 29.934C81.7413 30.174 82.1193 30.528 82.3833 30.996C82.6533 31.458 82.7883 32.034 82.7883 32.724ZM81.5823 32.76C81.5823 31.992 81.4053 31.428 81.0513 31.068C80.7033 30.708 80.1963 30.528 79.5303 30.528H78.6843V35.037H79.3773C80.8473 35.037 81.5823 34.278 81.5823 32.76Z" fill="#F5F7FA"/>
<defs>
<clipPath id="clip0">
<rect width="25.6" height="30.4" fill="white" transform="translate(11 7)"/>
</clipPath>
</defs>
</svg>
