<svg width="644" height="764" viewBox="0 0 644 764" fill="none" xmlns="http://www.w3.org/2000/svg">
<g opacity="0.01" clip-path="url(#clip0)">
<path fill-rule="evenodd" clip-rule="evenodd" d="M308.848 7.61825C316.757 2.92212 326.6 2.92212 334.509 7.61823L631.062 183.696C638.688 188.224 643.363 196.437 643.363 205.306V558.694C643.363 567.563 638.688 575.776 631.062 580.304L359.641 741.46C342.888 751.407 321.679 739.333 321.679 719.85V669.163C321.679 660.294 326.354 652.081 333.98 647.553L539.152 525.732C546.778 521.204 551.453 512.992 551.453 504.123V259.872C551.453 251.006 546.781 242.796 539.158 238.267L266.254 76.1201C249.858 66.3787 249.862 42.6415 266.26 32.9049L308.848 7.61825Z" fill="#F5F7FA"/>
<path fill-rule="evenodd" clip-rule="evenodd" d="M-0.000732422 558.695C-0.000732422 567.564 4.67411 575.777 12.3003 580.305L53.9467 605.032C70.6992 614.979 91.9089 602.905 91.9089 583.423V259.878C91.9089 251.009 96.5838 242.797 104.21 238.269L125.225 225.791C133.137 221.094 142.983 221.096 150.893 225.796L355.345 347.282C362.967 351.811 367.638 360.021 367.638 368.887L367.638 486.416C367.638 505.847 388.746 517.927 405.499 508.085L447.146 483.619C454.829 479.106 459.548 470.861 459.548 461.95V314.32C459.548 305.451 454.874 297.24 447.249 292.711L150.835 116.681C142.926 111.984 133.082 111.983 125.172 116.68L12.3002 183.697C4.67407 188.225 -0.000732422 196.438 -0.000732422 205.307V558.695Z" fill="#F5F7FA"/>
<path fill-rule="evenodd" clip-rule="evenodd" d="M183.823 667.84C183.823 676.709 188.498 684.922 196.124 689.45L237.771 714.178C254.523 724.125 275.733 712.051 275.733 692.568V612.251C275.733 603.38 271.056 595.166 263.427 590.639L221.781 565.923C205.028 555.981 183.823 568.055 183.823 587.535V667.84Z" fill="#F5F7FA"/>
<path fill-rule="evenodd" clip-rule="evenodd" d="M175.92 444.009C175.92 453.8 181.606 462.699 190.491 466.814L232.138 486.101C248.793 493.815 267.83 481.652 267.83 463.297V410.447C267.83 400.655 262.143 391.754 253.256 387.64L211.609 368.362C194.954 360.653 175.92 372.816 175.92 391.169V444.009Z" fill="#F5F7FA"/>
</g>
<defs>
<clipPath id="clip0">
<rect width="643.368" height="764" fill="white"/>
</clipPath>
</defs>
</svg>
