<svg width="100" height="94" viewBox="0 0 100 94" fill="none" xmlns="http://www.w3.org/2000/svg">
<rect x="0.000244141" width="100" height="94" rx="15" fill="#2A9D66"/>
<g clip-path="url(#clip0)">
<path fill-rule="evenodd" clip-rule="evenodd" d="M48.5298 15.2494C49.1789 14.863 49.9875 14.863 50.6366 15.2494L75.244 29.8991C75.8677 30.2704 76.2498 30.9426 76.2498 31.6685V61.0784C76.2498 61.8043 75.8677 62.4765 75.244 62.8478L52.6958 76.2715C51.3231 77.0887 49.5832 76.0996 49.5832 74.5021V70.2234C49.5832 69.4975 49.9653 68.8253 50.589 68.454L67.6249 58.3119C68.2486 57.9406 68.6308 57.2684 68.6308 56.5425V36.2039C68.6308 35.4783 68.2489 34.8062 67.6255 34.4348L44.9437 20.9225C43.6031 20.1239 43.6034 18.1823 44.9442 17.3841L48.5298 15.2494Z" fill="#F5F7FA"/>
<path fill-rule="evenodd" clip-rule="evenodd" d="M22.917 61.0785C22.917 61.8043 23.2991 62.4766 23.9228 62.8479L27.4234 64.9319C28.7961 65.7491 30.536 64.76 30.536 63.1625V36.2044C30.536 35.4786 30.9182 34.8063 31.5419 34.435L33.3081 33.3836C33.9574 32.997 34.7663 32.9972 35.4154 33.3839L52.3879 43.496C53.0113 43.8674 53.3932 44.5395 53.3932 45.2651L53.3931 55.0993C53.3931 56.6925 55.1247 57.6822 56.4975 56.8736L59.9981 54.8116C60.6265 54.4415 61.0122 53.7666 61.0122 53.0373V40.7295C61.0122 40.0037 60.6301 39.3315 60.0065 38.9602L35.4106 24.3145C34.7615 23.928 33.9529 23.928 33.3037 24.3144L23.9228 29.8992C23.2991 30.2705 22.917 30.9427 22.917 31.6686V61.0785Z" fill="#F5F7FA"/>
<path fill-rule="evenodd" clip-rule="evenodd" d="M38.1553 70.1503C38.1553 70.8762 38.5374 71.5484 39.1611 71.9197L42.6618 74.0038C44.0344 74.821 45.7743 73.8319 45.7743 72.2344V65.4929C45.7743 64.7669 45.392 64.0945 44.7681 63.7233L41.2675 61.6402C39.8949 60.8235 38.1553 61.8126 38.1553 63.4099V70.1503Z" fill="#F5F7FA"/>
<path fill-rule="evenodd" clip-rule="evenodd" d="M37.5002 51.5479C37.5002 52.3493 37.9653 53.078 38.6922 53.4156L42.1928 55.0411C43.5577 55.6749 45.1193 54.6783 45.1193 53.1734V48.7174C45.1193 47.9158 44.6541 47.187 43.927 46.8496L40.4264 45.2248C39.0615 44.5913 37.5002 45.5879 37.5002 47.0926V51.5479Z" fill="#F5F7FA"/>
</g>
<defs>
<clipPath id="clip0">
<rect width="53.3333" height="63.5022" fill="white" transform="translate(22.9167 14.6223)"/>
</clipPath>
</defs>
</svg>
