<svg width="24" height="24" viewBox="0 0 24 24" fill="none" xmlns="http://www.w3.org/2000/svg">
<g clip-path="url(#clip0)">
<path d="M22.3298 5.89405C22.1319 5.55997 21.7006 5.44962 21.3665 5.64739C21.0323 5.84534 20.9219 6.27659 21.1198 6.61072C22.0842 8.23869 22.5938 10.1023 22.5938 12.0001C22.5938 17.8415 17.8415 22.5938 12.0001 22.5938C9.80047 22.5938 7.70333 21.9277 5.93858 20.6913H6.66364C7.05195 20.6913 7.36676 20.3765 7.36676 19.9882C7.36676 19.5999 7.05195 19.2851 6.66364 19.2851H4.01196C3.62365 19.2851 3.30884 19.5999 3.30884 19.9882V22.6398C3.30884 23.0281 3.62365 23.3429 4.01196 23.3429C4.40028 23.3429 4.71509 23.0281 4.71509 22.6398V21.5367C6.79709 23.1342 9.33181 24.0001 12.0001 24.0001C15.2054 24.0001 18.2189 22.7518 20.4854 20.4854C22.7519 18.2188 24.0001 15.2054 24.0001 12.0001C24.0001 9.8503 23.4225 7.73886 22.3298 5.89405Z" fill="#CBD2D9"/>
<path d="M1.40625 12C1.40625 6.15858 6.15858 1.40625 12 1.40625C14.1997 1.40625 16.2968 2.07244 18.0615 3.30881H17.3364C16.9481 3.30881 16.6333 3.62362 16.6333 4.01194C16.6333 4.40025 16.9481 4.71506 17.3364 4.71506H19.9881C20.3764 4.71506 20.6912 4.40025 20.6912 4.01194V1.36031C20.6912 0.972 20.3764 0.657188 19.9881 0.657188C19.5998 0.657188 19.285 0.972 19.285 1.36031V2.46281C17.2029 0.865641 14.6681 0 12 0C8.79469 0 5.78123 1.24823 3.51469 3.51469C1.24823 5.78123 0 8.79469 0 12C0 14.1497 0.577594 16.2611 1.67034 18.106C1.80169 18.3277 2.03573 18.4509 2.27602 18.4509C2.39784 18.4509 2.52122 18.4192 2.63367 18.3526C2.9678 18.1547 3.07819 17.7234 2.88033 17.3893C1.91597 15.7613 1.40625 13.8977 1.40625 12Z" fill="#CBD2D9"/>
<path d="M4.26562 12C4.26562 16.2647 7.73527 19.7344 12 19.7344C16.2647 19.7344 19.7344 16.2647 19.7344 12C19.7344 7.73527 16.2647 4.26562 12 4.26562C7.73527 4.26562 4.26562 7.73527 4.26562 12ZM12.7031 6.375V5.71116C13.9219 5.84648 15.0371 6.32925 15.9476 7.05802L15.4803 7.52536C15.2057 7.79991 15.2057 8.24508 15.4803 8.51972C15.6176 8.65706 15.7975 8.72569 15.9774 8.72569C16.1573 8.72569 16.3373 8.65702 16.4746 8.51972L16.9419 8.05237C17.6708 8.96287 18.1535 10.0781 18.2888 11.2969H17.625C17.2367 11.2969 16.9219 11.6117 16.9219 12C16.9219 12.3883 17.2367 12.7031 17.625 12.7031H18.2888C18.1535 13.9219 17.6707 15.0372 16.942 15.9476L16.4746 15.4803C16.2001 15.2057 15.7549 15.2058 15.4803 15.4803C15.2057 15.7549 15.2057 16.2001 15.4803 16.4747L15.9476 16.942C15.0371 17.6707 13.9219 18.1535 12.7031 18.2888V17.625C12.7031 17.2367 12.3883 16.9219 12 16.9219C11.6117 16.9219 11.2969 17.2367 11.2969 17.625V18.2888C10.0781 18.1535 8.96287 17.6707 8.05237 16.942L8.51972 16.4747C8.79427 16.2001 8.79431 15.755 8.51972 15.4803C8.24522 15.2057 7.8 15.2058 7.52536 15.4803L7.05802 15.9476C6.32925 15.0372 5.84648 13.9219 5.71116 12.7031H6.375C6.76331 12.7031 7.07812 12.3883 7.07812 12C7.07812 11.6117 6.76331 11.2969 6.375 11.2969H5.71116C5.84653 10.0781 6.32925 8.96287 7.05802 8.05237L7.52536 8.51972C7.66266 8.65706 7.84261 8.72569 8.02252 8.72569C8.20242 8.72569 8.38242 8.65702 8.51967 8.51972C8.79427 8.24512 8.79422 7.79995 8.51967 7.52536L8.05233 7.05802C8.96283 6.32925 10.0781 5.84648 11.2969 5.71116V6.375C11.2969 6.76331 11.6117 7.07812 12 7.07812C12.3883 7.07812 12.7031 6.76331 12.7031 6.375Z" fill="#CBD2D9"/>
<path d="M11.2968 8.95312V11.7088L9.34828 13.6573C9.07369 13.9318 9.07369 14.377 9.34828 14.6516C9.48558 14.7889 9.66553 14.8576 9.84544 14.8576C10.0253 14.8576 10.2053 14.7889 10.3426 14.6516L12.4971 12.4972C12.629 12.3653 12.703 12.1865 12.703 12V8.95312C12.703 8.56481 12.3882 8.25 11.9999 8.25C11.6116 8.25 11.2968 8.56481 11.2968 8.95312Z" fill="#CBD2D9"/>
</g>
<defs>
<clipPath id="clip0">
<rect width="24" height="24" fill="white"/>
</clipPath>
</defs>
</svg>
