<svg width="24" height="24" viewBox="0 0 24 24" fill="none" xmlns="http://www.w3.org/2000/svg">
<g clip-path="url(#clip0)">
<path d="M12.363 14.947C12.363 13.099 11.484 11.733 9.668 11.221C10.993 10.59 11.684 9.634 11.684 8.147C11.684 5.215 9.492 4.5 6.963 4.5H0V19.221H7.158C9.842 19.221 12.363 17.938 12.363 14.947ZM3.246 7.013H6.292C7.463 7.013 8.517 7.341 8.517 8.695C8.517 9.945 7.697 10.448 6.537 10.448H3.246V7.013ZM3.245 16.721V12.667H6.783C8.212 12.667 9.116 13.261 9.116 14.769C9.116 16.256 8.037 16.721 6.716 16.721H3.245Z" fill="#9AA5B1"/>
<path d="M18.796 19.5002C21.35 19.5002 23.004 18.3532 23.8 15.9152H21.208C20.929 16.8252 19.779 17.3062 18.887 17.3062C17.166 17.3062 16.262 16.3012 16.262 14.5932H23.975C24.219 11.1752 22.315 8.26221 18.795 8.26221C15.536 8.26221 13.324 10.7042 13.324 13.9032C13.324 17.2232 15.42 19.5002 18.796 19.5002ZM18.704 10.4742C20.179 10.4742 20.921 11.3382 21.045 12.7512H16.266C16.363 11.3502 17.296 10.4742 18.704 10.4742Z" fill="#9AA5B1"/>
<path d="M15.667 5.27295H21.655V6.72294H15.667V5.27295Z" fill="#9AA5B1"/>
</g>
<defs>
<clipPath id="clip0">
<rect width="24" height="24" fill="white"/>
</clipPath>
</defs>
</svg>
