<svg width="22" height="21" viewBox="0 0 22 21" fill="none" xmlns="http://www.w3.org/2000/svg">
<path d="M0 1C0 0.447715 0.492487 0 1.1 0H20.9C21.5075 0 22 0.447715 22 1V1.5C22 2.05228 21.5075 2.5 20.9 2.5H1.1C0.492487 2.5 0 2.05228 0 1.5V1Z" fill="#F5F7FA"/>
<path d="M7 10C7 9.44772 7.47969 9 8.07143 9H20.9286C21.5203 9 22 9.44772 22 10V10.5C22 11.0523 21.5203 11.5 20.9286 11.5H8.07143C7.4797 11.5 7 11.0523 7 10.5V10Z" fill="#F5F7FA"/>
<path d="M1 19C1 18.4477 1.49484 18 2.10526 18H20.8947C21.5052 18 22 18.4477 22 19V19.5C22 20.0523 21.5052 20.5 20.8947 20.5H2.10526C1.49484 20.5 1 20.0523 1 19.5V19Z" fill="#F5F7FA"/>
</svg>
