<svg width="24" height="24" viewBox="0 0 24 24" fill="none" xmlns="http://www.w3.org/2000/svg">
<path d="M20.6592 6.98037C19.765 5.44835 18.552 4.23536 17.0199 3.34115C15.4875 2.44699 13.8148 2 12.0003 2C10.186 2 8.51277 2.44699 6.98071 3.34115C5.44855 4.23522 4.23555 5.44822 3.34129 6.98037C2.44699 8.51261 2 10.1859 2 12C2 13.8142 2.44713 15.4872 3.34116 17.0195C4.23537 18.5516 5.44837 19.7646 6.98053 20.6588C8.51277 21.553 10.1859 22 12.0001 22C13.8144 22 15.4877 21.553 17.0198 20.6588C18.5519 19.7649 19.7649 18.5516 20.659 17.0195C21.5531 15.4873 22 13.8141 22 12C22 10.1857 21.5531 8.51238 20.6592 6.98037ZM12.0002 3.45836C14.1529 3.45836 16.0323 4.17014 17.6381 5.59366L17.4754 5.82137C17.4103 5.91267 17.2475 6.08826 16.9872 6.34881C16.7268 6.60913 16.4425 6.85668 16.1344 7.09101C15.826 7.32543 15.4074 7.59231 14.8777 7.89181C14.3482 8.19131 13.784 8.45405 13.1849 8.67971C12.1867 6.83926 11.1191 5.18128 9.9819 3.70568C10.6678 3.54077 11.3405 3.45836 12.0002 3.45836ZM5.30758 6.70021C6.14086 5.65007 7.15634 4.84265 8.35438 4.2785C9.43075 5.71077 10.4897 7.35151 11.5314 9.2004C8.89254 9.89485 6.2624 10.2421 3.64084 10.242C3.91877 8.93128 4.4743 7.75057 5.30758 6.70021ZM4.03132 15.0797C3.64932 14.1031 3.45837 13.0765 3.45837 12C3.45837 11.8784 3.46284 11.7872 3.47141 11.7265C6.61394 11.7265 9.53505 11.323 12.2347 10.5156C12.5125 11.0537 12.7426 11.5355 12.9249 11.961C12.8897 11.9783 12.8337 11.9977 12.7555 12.0195C12.6771 12.0412 12.6208 12.0562 12.5858 12.065L12.1042 12.2343C11.7742 12.3559 11.3422 12.5642 10.8085 12.8592C10.2747 13.1547 9.70835 13.506 9.10936 13.9141C8.51036 14.3222 7.89184 14.8626 7.25389 15.5356C6.61585 16.2082 6.07984 16.9307 5.6458 17.7032C4.95135 16.9307 4.41323 16.0559 4.03132 15.0797ZM12.0002 20.5418C9.96886 20.5418 8.15462 19.8907 6.55734 18.5887L6.75268 18.732C7.05646 18.0634 7.50345 17.421 8.09388 16.8048C8.68421 16.1886 9.25274 15.6914 9.79961 15.3137C10.3465 14.9363 10.9411 14.5805 11.5835 14.2458C12.2258 13.9119 12.664 13.699 12.8986 13.6081C13.133 13.517 13.3197 13.4452 13.4585 13.3931L13.4845 13.38H13.5107C14.3611 15.6108 14.969 17.7725 15.3335 19.8645C14.2571 20.3161 13.1461 20.5416 12.0002 20.5418ZM19.1881 16.6159C18.5457 17.61 17.7425 18.4326 16.7793 19.0834C16.4231 17.0869 15.8678 15.0511 15.1124 12.9766C16.8398 12.7072 18.615 12.8333 20.4379 13.354C20.2469 14.5345 19.8302 15.6221 19.1881 16.6159ZM20.4117 11.8828C20.3249 11.8656 20.2163 11.8459 20.0861 11.8243C19.956 11.8028 19.7974 11.7766 19.6107 11.7462C19.4243 11.7158 19.2157 11.6877 18.9858 11.6616C18.7557 11.6356 18.5105 11.6118 18.2499 11.59C17.9896 11.5682 17.7117 11.551 17.4168 11.5379C17.1213 11.525 16.822 11.5184 16.5181 11.5184C16.2145 11.5184 15.8952 11.5272 15.5612 11.5444C15.2271 11.5615 14.9038 11.5923 14.5914 11.6356C14.5651 11.5921 14.5327 11.5205 14.4936 11.4206C14.4546 11.3209 14.4262 11.2448 14.4094 11.1927C14.2442 10.8281 14.0532 10.4158 13.8359 9.95583C14.4349 9.71261 15.0058 9.43276 15.5487 9.11584C16.0911 8.79892 16.5248 8.51699 16.8505 8.26962C17.1761 8.02197 17.4842 7.75937 17.7749 7.48167C18.0659 7.20393 18.2544 7.01088 18.3415 6.90233C18.4284 6.79361 18.5109 6.68734 18.5889 6.58332L18.602 6.57018C19.8693 8.11533 20.5163 9.89476 20.542 11.9088L20.4117 11.8828Z" fill="#9AA5B1"/>
</svg>
