<svg width="24" height="24" viewBox="0 0 24 24" fill="none" xmlns="http://www.w3.org/2000/svg">
<path d="M21.6922 18.5685L17.9059 13.9055C17.912 13.8907 17.9189 13.8765 17.9241 13.8614L18.3413 12.6675L19.287 11.8257C19.3769 11.7461 19.4476 11.647 19.4936 11.536C19.5396 11.4251 19.5598 11.3051 19.5527 11.1852L19.4804 9.92297L20.0313 8.78447C20.0839 8.67641 20.1112 8.55779 20.1113 8.43759C20.1112 8.3174 20.0839 8.19878 20.0313 8.09072L19.4805 6.95217L19.5528 5.68987C19.5599 5.56995 19.5397 5.44998 19.4937 5.33902C19.4476 5.22805 19.377 5.12901 19.287 5.04937L18.3414 4.20768L17.9242 3.01387C17.8849 2.90043 17.8203 2.7974 17.7354 2.71255C17.6504 2.62771 17.5473 2.56326 17.4338 2.52408L16.2371 2.1075L15.3933 1.16353C15.3136 1.07389 15.2146 1.0035 15.1037 0.957661C14.9928 0.911819 14.873 0.891719 14.7532 0.898872L13.4876 0.971013L12.3464 0.421076C12.2385 0.368741 12.1201 0.341553 12.0001 0.341553C11.8802 0.341553 11.7618 0.368741 11.6538 0.421076L10.5123 0.971013L9.24669 0.898872C9.12693 0.891727 9.0071 0.911841 8.89623 0.957698C8.78536 1.00356 8.68634 1.07396 8.60662 1.16362L7.76287 2.1075L6.56615 2.52412C6.45271 2.56333 6.34965 2.62779 6.26475 2.71262C6.17985 2.79746 6.11532 2.90047 6.07602 3.01387L5.65883 4.20773L4.71308 5.04947C4.62315 5.12912 4.55249 5.22817 4.50647 5.33914C4.46044 5.45011 4.44024 5.57009 4.4474 5.69001L4.51963 6.95222L3.9689 8.09072C3.91627 8.19878 3.88892 8.3174 3.88892 8.43759C3.88892 8.55779 3.91627 8.67641 3.9689 8.78447L4.51963 9.92301L4.4474 11.1853C4.44025 11.3052 4.46046 11.4252 4.50649 11.5362C4.55253 11.6471 4.62319 11.7462 4.71313 11.8258L5.65874 12.6675L6.07593 13.8614C6.11527 13.9748 6.17985 14.0778 6.26481 14.1627C6.34977 14.2475 6.45288 14.312 6.56638 14.3512L7.7631 14.7677L8.60685 15.7117C8.68 15.7937 8.7694 15.8596 8.86938 15.9051C8.96936 15.9507 9.07772 15.975 9.18758 15.9764V23.2501C9.1754 23.6553 9.64462 23.9453 10.0017 23.7532L12.0001 22.754L13.9985 23.7532C14.3551 23.9454 14.8249 23.6553 14.8126 23.2501V19.0196L17.3258 22.1141C17.573 22.4369 18.1186 22.3653 18.2749 21.9914L19.1962 19.9564L21.3775 19.4722C21.7757 19.3963 21.9571 18.8753 21.6922 18.5685ZM8.50499 13.9095C8.4414 13.8383 8.36075 13.7845 8.27062 13.7531L7.0859 13.3406L6.67274 12.1586C6.64112 12.0684 6.58708 11.9877 6.51571 11.9242L5.57962 11.0907L5.65115 9.8414C5.65664 9.74585 5.63763 9.65047 5.59593 9.56433L5.05087 8.43759L5.59593 7.31067C5.63763 7.22452 5.65664 7.12915 5.65115 7.03359L5.57962 5.78447L6.51571 4.95108C6.58708 4.88753 6.64112 4.80688 6.67274 4.7167L7.0858 3.53447L8.27052 3.12197C8.36065 3.09055 8.44131 3.03673 8.5049 2.96554L9.34021 2.0309L10.5934 2.10234C10.6886 2.10784 10.7837 2.08896 10.8696 2.0475L12.0001 1.503L13.1305 2.04764C13.2165 2.089 13.3115 2.10787 13.4067 2.10248L14.6599 2.03104L15.4952 2.96568C15.5588 3.03687 15.6394 3.0907 15.7296 3.12211L16.9143 3.53461L17.3274 4.71661C17.359 4.80679 17.4131 4.88744 17.4845 4.95098L18.4206 5.78447L18.349 7.03378C18.3435 7.12933 18.3625 7.22471 18.4042 7.31086L18.9493 8.43759L18.4042 9.56451C18.3625 9.65066 18.3435 9.74604 18.349 9.84159L18.4206 11.0907L17.4845 11.9241C17.4131 11.9876 17.359 12.0683 17.3274 12.1585L16.9144 13.3407L15.7296 13.7532C15.6395 13.7846 15.5589 13.8385 15.4953 13.9096L14.66 14.8443L13.4068 14.7728C13.3116 14.7674 13.2165 14.7863 13.1306 14.8277L12.0001 15.3722L10.8696 14.8275C10.7935 14.7908 10.71 14.7718 10.6255 14.7718C10.6148 14.7718 10.6041 14.7721 10.5935 14.7727L9.3403 14.8441L8.50499 13.9095ZM13.6876 22.3399L12.2517 21.622C12.1736 21.5829 12.0874 21.5626 12.0001 21.5626C11.9128 21.5626 11.8266 21.5829 11.7485 21.622L10.3126 22.3399V15.9156L10.5123 15.9042L11.6538 16.4541C11.7617 16.5065 11.8801 16.5337 12.0001 16.5337C12.12 16.5337 12.2384 16.5065 12.3463 16.4541L13.4879 15.9042L13.6876 15.9156V22.3399ZM18.6778 18.9191C18.5926 18.938 18.5129 18.9765 18.4452 19.0316C18.3774 19.0866 18.3233 19.1567 18.2873 19.2362L17.6253 20.6984L14.8128 17.2351V15.9764C14.9227 15.975 15.0311 15.9508 15.1312 15.9052C15.2312 15.8596 15.3206 15.7936 15.3937 15.7116L16.2374 14.7677L16.9546 14.518L20.2457 18.5712L18.6778 18.9191Z" fill="#CBD2D9"/>
<path d="M17.4375 8.43738C17.4375 7.36194 17.1186 6.31066 16.5211 5.41647C15.9236 4.52228 15.0744 3.82534 14.0808 3.41379C13.0873 3.00223 11.994 2.89455 10.9392 3.10436C9.88442 3.31417 8.91556 3.83204 8.15511 4.59249C7.39466 5.35294 6.87679 6.3218 6.66698 7.37658C6.45718 8.43135 6.56486 9.52465 6.97641 10.5182C7.38796 11.5118 8.0849 12.361 8.97909 12.9585C9.87328 13.556 10.9246 13.8749 12 13.8749C13.4416 13.8732 14.8237 13.2998 15.8431 12.2805C16.8625 11.2611 17.4359 9.87899 17.4375 8.43738ZM7.6875 8.43738C7.6875 7.58445 7.94042 6.75067 8.41429 6.04148C8.88815 5.3323 9.56167 4.77955 10.3497 4.45315C11.1377 4.12675 12.0048 4.04135 12.8413 4.20774C13.6779 4.37414 14.4463 4.78487 15.0494 5.38798C15.6525 5.9911 16.0632 6.75951 16.2296 7.59605C16.396 8.4326 16.3106 9.2997 15.9842 10.0877C15.6578 10.8757 15.1051 11.5492 14.3959 12.0231C13.6867 12.497 12.8529 12.7499 12 12.7499C10.8566 12.7486 9.76045 12.2939 8.95197 11.4854C8.14349 10.6769 7.68874 9.58075 7.6875 8.43738Z" fill="#CBD2D9"/>
<path d="M13.3127 10.6877C13.4619 10.6877 13.6049 10.6284 13.7104 10.523C13.8159 10.4175 13.8752 10.2744 13.8752 10.1252C13.8752 9.97603 13.8159 9.83296 13.7104 9.72747C13.6049 9.62198 13.4619 9.56271 13.3127 9.56271H12.7502V6.00022C12.7502 5.88897 12.7172 5.78022 12.6554 5.68772C12.5936 5.59523 12.5057 5.52313 12.4029 5.48056C12.3002 5.43799 12.1871 5.42685 12.0779 5.44855C11.9688 5.47025 11.8686 5.52382 11.7899 5.60248L10.2899 7.10248C10.1859 7.20826 10.1278 7.35088 10.1284 7.49927C10.129 7.64766 10.1882 7.7898 10.2932 7.89472C10.3981 7.99965 10.5402 8.05887 10.6886 8.05947C10.837 8.06008 10.9796 8.00202 11.0854 7.89795L11.6252 7.35823V9.56271H11.0627C10.9135 9.56271 10.7704 9.62198 10.6649 9.72747C10.5594 9.83296 10.5002 9.97603 10.5002 10.1252C10.5002 10.2744 10.5594 10.4175 10.6649 10.523C10.7704 10.6284 10.9135 10.6877 11.0627 10.6877H13.3127Z" fill="#CBD2D9"/>
</svg>
