<svg width="24" height="24" viewBox="0 0 24 24" fill="none" xmlns="http://www.w3.org/2000/svg">
<path d="M21.9492 7.8812C21.9023 6.81832 21.7304 6.08759 21.4842 5.45441C21.2302 4.78231 20.8394 4.18057 20.3274 3.68034C19.8272 3.17233 19.2215 2.77759 18.5572 2.52755C17.9203 2.28133 17.1934 2.10945 16.1306 2.06259C15.0597 2.01175 14.7198 2 12.0039 2C9.28799 2 8.94805 2.01175 7.8812 2.05862C6.81831 2.10548 6.08759 2.27751 5.45456 2.52358C4.7823 2.77759 4.18057 3.16836 3.68034 3.68034C3.17233 4.18057 2.77774 4.78627 2.52755 5.4506C2.28133 6.08759 2.10945 6.81435 2.06259 7.87723C2.01175 8.94806 2 9.288 2 12.0039C2 14.7198 2.01175 15.0598 2.05862 16.1266C2.10548 17.1895 2.27751 17.9202 2.52373 18.5534C2.77774 19.2255 3.17233 19.8272 3.68034 20.3275C4.18057 20.8355 4.78627 21.2302 5.45059 21.4803C6.08759 21.7265 6.81434 21.8984 7.87738 21.9452C8.94408 21.9922 9.28418 22.0038 12.0001 22.0038C14.716 22.0038 15.0559 21.9922 16.1228 21.9452C17.1857 21.8984 17.9164 21.7265 18.5494 21.4803C19.8938 20.9605 20.9567 19.8976 21.4764 18.5534C21.7225 17.9164 21.8945 17.1895 21.9414 16.1266C21.9882 15.0598 22 14.7198 22 12.0039C22 9.288 21.996 8.94806 21.9492 7.8812ZM20.1478 16.0485C20.1047 17.0254 19.9406 17.5529 19.8039 17.9046C19.4677 18.7761 18.7761 19.4678 17.9046 19.8039C17.5529 19.9407 17.0216 20.1048 16.0484 20.1476C14.9933 20.1947 14.6769 20.2063 12.0079 20.2063C9.33882 20.2063 9.01842 20.1947 7.96714 20.1476C6.99019 20.1048 6.46264 19.9407 6.11094 19.8039C5.67727 19.6436 5.28253 19.3896 4.96212 19.0574C4.62996 18.7331 4.37596 18.3423 4.21568 17.9086C4.0789 17.5569 3.91481 17.0254 3.87191 16.0524C3.8249 14.9973 3.8133 14.6807 3.8133 12.0117C3.8133 9.34265 3.8249 9.02224 3.87191 7.97111C3.91481 6.99417 4.0789 6.46662 4.21568 6.11492C4.37596 5.68109 4.62996 5.2865 4.96609 4.96594C5.29031 4.63378 5.68109 4.37977 6.11491 4.21965C6.46661 4.08287 6.99813 3.91878 7.9711 3.87573C9.0262 3.82887 9.34279 3.81712 12.0117 3.81712C14.6847 3.81712 15.0011 3.82887 16.0524 3.87573C17.0293 3.91878 17.5569 4.08287 17.9086 4.21965C18.3423 4.37977 18.737 4.63378 19.0574 4.96594C19.3896 5.29032 19.6436 5.68109 19.8039 6.11492C19.9406 6.46662 20.1047 6.99798 20.1478 7.97111C20.1946 9.02621 20.2064 9.34265 20.2064 12.0117C20.2064 14.6807 20.1946 14.9934 20.1478 16.0485Z" fill="#9AA5B1"/>
<path d="M12.004 6.86499C9.16701 6.86499 6.86523 9.16661 6.86523 12.0037C6.86523 14.8408 9.16701 17.1424 12.004 17.1424C14.8411 17.1424 17.1427 14.8408 17.1427 12.0037C17.1427 9.16661 14.8411 6.86499 12.004 6.86499ZM12.004 15.3371C10.1635 15.3371 8.6706 13.8443 8.6706 12.0037C8.6706 10.1631 10.1635 8.67035 12.004 8.67035C13.8446 8.67035 15.3373 10.1631 15.3373 12.0037C15.3373 13.8443 13.8446 15.3371 12.004 15.3371Z" fill="#9AA5B1"/>
<path d="M18.5455 6.66206C18.5455 7.32455 18.0083 7.86172 17.3457 7.86172C16.6832 7.86172 16.146 7.32455 16.146 6.66206C16.146 5.99942 16.6832 5.4624 17.3457 5.4624C18.0083 5.4624 18.5455 5.99942 18.5455 6.66206Z" fill="#9AA5B1"/>
</svg>
