<svg width="24" height="24" viewBox="0 0 24 24" fill="none" xmlns="http://www.w3.org/2000/svg">
<path d="M22.9944 22.9998V22.9989H22.9999V14.9304C22.9999 10.9832 22.1502 7.94263 17.5357 7.94263C15.3173 7.94263 13.8287 9.15996 13.2209 10.314H13.1567V8.31113H8.78149V22.9989H13.3373V15.726C13.3373 13.8111 13.7003 11.9595 16.0717 11.9595C18.4083 11.9595 18.4432 14.1448 18.4432 15.8489V22.9998H22.9944Z" fill="#9AA5B1"/>
<path d="M1.36304 8.3125H5.92437V23.0002H1.36304V8.3125Z" fill="#9AA5B1"/>
<path d="M3.64183 1C2.18342 1 1 2.18342 1 3.64183C1 5.10025 2.18342 6.30841 3.64183 6.30841C5.10025 6.30841 6.28366 5.10025 6.28366 3.64183C6.28275 2.18342 5.09933 1 3.64183 1V1Z" fill="#9AA5B1"/>
</svg>
