<svg width="46" height="56" viewBox="0 0 46 56" fill="none" xmlns="http://www.w3.org/2000/svg">
<path d="M31.1812 6.93631C30.901 5.57111 28.8774 5.9515 28.8277 7.2542C28.8133 7.63305 28.778 8.00624 28.7327 8.37712C28.4895 8.2853 28.2156 8.24389 27.9119 8.28736C21.9408 9.1428 15.803 8.93395 9.78914 9.32823C9.01477 9.3789 8.71672 10.6489 9.59233 10.7796C9.89759 10.8251 10.2023 10.8665 10.5076 10.9079C9.99059 10.9517 9.48053 11.0417 8.98721 11.2191C8.44159 11.4154 8.14895 12.3228 8.80482 12.6124C14.7298 15.2286 22.0712 13.6867 28.279 13.2129C28.9184 13.1641 29.3468 12.8027 29.5709 12.3452C29.6109 12.3536 29.6477 12.3688 29.6889 12.3745C30.6681 12.5067 31.4716 11.7667 31.5123 10.7966C31.5658 9.49567 31.4432 8.21174 31.1812 6.93631Z" fill="#52606D"/>
<path d="M9.93952 29.793C9.62421 30.4787 9.25789 30.5944 8.51134 30.7389C7.55947 30.9234 6.66351 31.0144 5.90717 31.6736C5.326 32.1803 5.79588 33.1893 6.53007 33.1751C8.78569 33.1316 11.9916 33.8361 12.9239 31.0489C13.5012 29.3231 10.7172 28.1014 9.93952 29.793Z" fill="#52606D"/>
<path d="M11.4194 19.1339C10.3473 18.6827 9.37583 19.2985 8.97808 20.3044C8.59811 21.2652 7.35952 21.6161 6.42569 21.561C4.90271 21.4713 4.86948 23.5425 6.09157 24.026C8.41804 24.9468 11.0111 23.7243 12.2847 21.696C12.8633 20.774 12.3816 19.5384 11.4194 19.1339Z" fill="#52606D"/>
<path d="M11.7176 41.1125C10.768 42.3404 9.48305 42.5793 8.03452 42.5243C7.37839 42.4994 7.272 43.3334 7.72616 43.6609C9.5727 44.9911 12.4386 44.346 13.9312 42.8183C15.3241 41.3924 12.9883 39.4693 11.7176 41.1125Z" fill="#52606D"/>
<path d="M25.1501 40.8261C24.5507 41.1563 24.1122 41.7059 23.5759 42.1244C23.3162 42.3271 23.0486 42.5189 22.7755 42.7031C22.7111 42.6954 22.65 42.6828 22.582 42.6807C19.7257 42.6038 16.6297 43.5925 13.8414 44.1627C11.1494 44.7131 8.37594 45.0927 5.71278 45.7401C5.32121 45.8352 5.25269 46.4031 5.60046 46.5976C6.37252 47.0291 7.22469 47.2596 8.11086 47.3712C7.46916 47.4425 6.82771 47.524 6.18652 47.6243C5.27278 47.7673 5.30679 49.2616 6.18652 49.4337C9.12919 50.009 12.1182 50.2595 15.1067 50.4614C17.4922 50.6227 20.5536 51.2783 22.3548 49.2788C23.141 48.4059 22.8976 47.1395 22.193 46.4396C22.4862 46.3697 22.7765 46.2938 23.0599 46.2053C24.0816 45.8867 24.4579 44.9356 24.2869 44.1007C24.4123 44.0464 24.5401 43.9973 24.6645 43.9405C25.356 43.6246 26.1218 43.3296 26.6589 42.7787C27.6497 41.762 26.3939 40.1406 25.1501 40.8261Z" fill="#52606D"/>
<path d="M38.6188 29.6379C38.3045 26.5264 37.9774 23.4168 37.5188 20.3228C37.0582 17.2138 36.7102 13.9505 35.6051 10.9909C35.2977 10.1681 34.2335 10.351 34.1284 11.1905C33.8361 13.5194 33.9522 15.9072 34.0733 18.2685C33.8654 15.7308 33.6155 13.1953 33.2438 10.6789C33.1701 10.1802 32.487 10.3742 32.4362 10.788C31.9756 14.542 31.7914 18.3354 31.6067 22.1111C31.5173 23.9372 31.4411 25.7645 31.3383 27.5901C31.245 29.2475 30.7643 30.7855 30.6183 32.4192C30.4851 33.9112 32.4488 34.4552 33.4056 33.572C34.2304 32.8104 34.6563 31.7636 34.8472 30.5908C35.7851 32.1865 38.8398 31.8261 38.6188 29.6379Z" fill="#52606D"/>
<path d="M43.6129 31.4883C42.7335 30.9744 41.7113 31.4819 41.3869 32.3923C41.3661 32.451 41.3581 32.477 41.3563 32.487C41.3187 32.5649 41.2824 32.6431 41.2419 32.72C41.1391 32.9152 41.0242 33.1074 40.8926 33.2848C40.8787 33.3036 40.7741 33.4607 40.7226 33.5096C40.5644 33.6606 40.3382 33.7684 40.1486 33.8741C39.688 34.1307 39.5031 34.7336 39.7112 35.2069C39.9029 35.6425 40.4748 36.0332 40.9722 35.8249C42.0665 35.3663 43.133 34.7712 43.9192 33.8645C44.5524 33.1346 44.4942 32.0032 43.6129 31.4883Z" fill="#52606D"/>
<path d="M42.5658 35.4264C41.7906 36.2767 41.0441 37.1623 40.3122 38.0648C39.738 37.3276 38.6339 36.955 37.8459 37.8217C34.819 41.1516 31.7261 44.5559 28.997 48.1337C28.4104 48.9025 29.633 49.7315 30.2884 49.1286C32.1105 47.4524 33.899 45.7624 35.7129 44.0965C34.8197 45.2987 33.9256 46.4936 33.0121 47.6559C31.4845 49.5993 30.2145 51.4596 27.8136 52.3477C26.4802 52.8407 25.0757 53.2496 23.7232 53.7609C23.8879 53.4713 23.9499 53.1578 23.9031 52.8093C23.8935 52.6018 23.8317 52.4084 23.7176 52.2293C23.5787 51.995 23.392 51.8083 23.157 51.6697C22.5787 51.2386 21.7239 51.1939 21.0475 51.3811C20.5256 51.5257 20.0825 52.0563 20.1075 52.6139C20.1312 53.1429 20.4233 53.5585 20.8834 53.7774C20.9318 53.8008 20.9756 53.8317 21.0209 53.8595C21.1054 53.9436 21.1871 54.031 21.2639 54.1197C21.4452 54.3288 21.7041 54.4497 21.9741 54.5156C21.6786 54.6632 21.3878 54.8188 21.1054 54.9891C20.641 55.2689 20.8437 55.9795 21.3782 55.9944C23.9116 56.0647 26.7491 55.4482 29.2003 54.8363C31.6094 54.235 33.2543 52.8515 34.9063 51.0712C38.6839 47.0003 42.8275 42.6179 45.7205 37.8572C46.8869 35.9372 44.1215 33.7202 42.5658 35.4264Z" fill="#52606D"/>
<path d="M6.50484 48.036C4.03747 48.036 1.95109 46.1054 1.79524 43.6204C1.52501 39.3106 1.22464 35.3101 0.876348 31.3897C0.558717 27.8149 0.428367 22.9763 0.302138 18.2966C0.217127 15.1462 0.136753 12.1704 0.0043425 9.74403C-0.0373901 8.97733 0.222795 8.24123 0.736467 7.67128C1.25091 7.10159 1.95702 6.76672 2.72546 6.7284C4.43212 6.64353 6.38737 6.55737 8.5366 6.47275C8.85527 6.46735 9.10231 6.69985 9.11442 7.00566C9.12627 7.31224 8.88747 7.57046 8.58065 7.58255C6.43477 7.66717 4.48339 7.75282 2.78033 7.83743C2.30994 7.86084 1.87767 8.06582 1.56288 8.41433C1.24834 8.76308 1.08913 9.21369 1.11489 9.68282C1.24808 12.1249 1.32845 15.1079 1.41372 18.2665C1.53943 22.9292 1.66927 27.7504 1.98407 31.2909C2.33313 35.2211 2.63479 39.2311 2.90527 43.5507C3.02815 45.5157 4.73816 47.0221 6.70243 46.9197C15.2919 46.4511 20.7851 46.3084 24.0671 46.223C24.3721 46.1965 24.6297 46.457 24.6374 46.7634C24.6457 47.0699 24.4032 47.3248 24.0962 47.3328C20.8202 47.4182 15.337 47.5609 6.76322 48.0288C6.67667 48.0336 6.59063 48.036 6.50484 48.036Z" fill="#F5F7FA"/>
<path d="M34.6171 33.5837C34.3036 33.5801 34.0573 33.3288 34.0609 33.0219C34.0697 32.2712 34.0735 31.5202 34.0735 30.7697C34.0735 25.8649 33.8965 20.8779 33.7252 16.0552C33.6438 13.7538 33.5591 11.3742 33.4949 9.03091C33.4692 8.08597 32.7118 7.33341 31.7705 7.31824C30.728 7.30126 29.6877 7.27631 28.648 7.25162L28.5197 7.24879C28.2127 7.24108 27.9698 6.98697 27.977 6.68013C27.9847 6.37355 28.2565 6.13487 28.5465 6.13822L28.6748 6.14156C29.7114 6.16625 30.7488 6.19069 31.7885 6.20766C33.3267 6.23287 34.5648 7.45969 34.6065 9.00056C34.6709 11.3392 34.7554 13.717 34.8368 16.0159C35.0084 20.8483 35.1859 25.8449 35.1859 30.7697C35.1859 31.5245 35.1818 32.2797 35.1733 33.0351C35.1696 33.3393 34.9211 33.5837 34.6171 33.5837Z" fill="#F5F7FA"/>
<path d="M16.7521 11.846C16.2701 11.846 15.8659 11.7125 15.4754 11.5839C15.0622 11.4476 14.6722 11.319 14.1474 11.319C13.6976 11.319 13.2522 11.401 12.7808 11.4877C12.2895 11.578 11.7813 11.6718 11.2475 11.6718C10.628 11.6718 10.2843 11.5615 10.0079 11.4725C9.80155 11.4064 9.65188 11.3583 9.3832 11.3583C9.21446 11.3583 9.03027 11.3812 8.83526 11.426C8.67297 11.4627 8.50166 11.426 8.3695 11.3236C8.23761 11.2217 8.15852 11.0654 8.1544 10.8987C8.11937 9.54122 8.05445 8.16059 7.99185 6.82497L7.94445 5.79747C7.93028 5.49115 8.16754 5.23164 8.47409 5.21749C10.1202 5.14084 11.6208 5.06934 13.1232 4.97495C13.3939 2.42691 14.9367 0 17.552 0C20.5333 0 21.928 2.61209 22.3517 4.33839C23.031 4.32065 23.7083 4.30804 24.3843 4.29544C25.6955 4.27126 27.0515 4.2458 28.3769 4.18073C28.668 4.16453 28.9277 4.38572 28.9573 4.67995C29.1214 6.31443 29.1271 7.97644 29.133 9.58366C29.1346 10.0152 29.1359 10.4463 29.1405 10.8758C29.1426 11.0883 29.0233 11.2835 28.8324 11.3786C28.6121 11.4882 28.2605 11.6338 27.7548 11.6338C27.2548 11.6338 26.7821 11.5119 26.3253 11.3943C25.9168 11.2891 25.5317 11.1901 25.172 11.1901C24.9433 11.1901 24.696 11.2572 24.409 11.3354C24.0151 11.4424 23.5687 11.5638 23.0063 11.5638C22.428 11.5638 21.8824 11.4411 21.354 11.3223C20.9053 11.2215 20.4818 11.1263 20.1062 11.1263C19.5 11.1263 18.8088 11.3393 18.1991 11.5273C17.6439 11.6986 17.1648 11.846 16.7521 11.846ZM14.1474 10.2084C14.8509 10.2084 15.368 10.3792 15.8244 10.5294C16.1599 10.64 16.4491 10.7354 16.7521 10.7354C16.9973 10.7354 17.4216 10.6045 17.8706 10.4664C18.5559 10.2552 19.332 10.016 20.1059 10.016C20.6049 10.016 21.1101 10.1294 21.5982 10.239C22.0668 10.3444 22.5516 10.4535 23.0061 10.4535C23.4195 10.4535 23.774 10.357 24.1166 10.2639C24.4497 10.1732 24.7941 10.0795 25.1718 10.0795C25.6726 10.0795 26.1455 10.2014 26.6025 10.319C27.0106 10.4242 27.396 10.5232 27.7548 10.5232C27.8576 10.5232 27.9465 10.5132 28.0251 10.4967C28.023 10.1942 28.0217 9.89127 28.0207 9.58752C28.0155 8.18039 28.0106 6.73083 27.8975 5.31394C26.729 5.36229 25.5499 5.38441 24.4051 5.40576C23.578 5.42093 22.7492 5.43636 21.9171 5.46131C21.6554 5.47494 21.3942 5.26893 21.3512 4.99244C21.1405 3.64962 20.0752 1.11032 17.5522 1.11032C15.4677 1.11032 14.2876 3.3289 14.1992 5.52047C14.1876 5.8039 13.9637 6.03357 13.6799 6.05235C12.1759 6.15137 10.6924 6.22544 9.08179 6.30106L9.10395 6.77327C9.15753 7.91214 9.21214 9.08418 9.24924 10.2503C9.29458 10.2485 9.3394 10.2475 9.38397 10.2475C9.82757 10.2475 10.1045 10.3365 10.3495 10.4152C10.5929 10.4934 10.8031 10.561 11.2483 10.561C11.6803 10.561 12.1169 10.4805 12.5796 10.3954C13.0789 10.3036 13.5959 10.2084 14.1474 10.2084Z" fill="#F5F7FA"/>
<path d="M17.5397 7.47795C17.0373 7.47589 16.5793 7.28531 16.2416 6.94143C15.9074 6.60091 15.7274 6.1449 15.7351 5.65828C15.7467 4.94636 16.1723 4.32214 16.8189 4.06726C17.0164 3.98959 17.2233 3.94535 17.433 3.93712C17.9608 3.9132 18.456 4.09864 18.8195 4.43557C19.1482 4.7406 19.3378 5.15726 19.353 5.60915C19.3689 6.08343 19.1719 6.57904 18.8254 6.93552C18.4848 7.28582 18.0286 7.47795 17.5397 7.47795ZM17.5118 5.04641C17.5008 5.04641 17.4889 5.04667 17.4776 5.04718C17.3928 5.05052 17.3088 5.06853 17.2274 5.10068C16.9526 5.2087 16.8508 5.46898 16.8477 5.67628C16.8449 5.86378 16.9119 6.03713 17.0363 6.16393C17.1646 6.29458 17.3418 6.36686 17.5368 6.36737C17.7777 6.36737 17.9361 6.256 18.0276 6.16213C18.1656 6.02041 18.2473 5.82288 18.2416 5.64696C18.2362 5.48827 18.1762 5.35479 18.0629 5.24959C17.924 5.12125 17.72 5.04641 17.5118 5.04641Z" fill="#F5F7FA"/>
<path d="M5.23057 21.9589C5.10125 21.9589 4.97502 21.9136 4.87455 21.8303C4.75477 21.7307 4.68238 21.5854 4.67517 21.4301C4.61282 20.1253 4.57959 18.8113 4.54765 17.54L4.5273 16.7468C4.51931 16.4456 4.75348 16.193 5.05514 16.1776C5.53068 16.1537 6.00855 16.1375 6.48796 16.1215C7.6101 16.084 8.77063 16.0449 9.89509 15.8993C10.0479 15.879 10.2019 15.924 10.3201 16.0212C10.4389 16.119 10.5121 16.2612 10.5219 16.4145C10.593 17.5189 10.7272 18.6282 10.8567 19.7004C10.9039 20.0919 10.9513 20.4828 10.9953 20.8727C11.0123 21.0209 10.9685 21.1698 10.874 21.286C10.7795 21.4018 10.6422 21.4748 10.4935 21.4885C9.88479 21.5438 9.27657 21.5898 8.67068 21.6353C7.55858 21.7192 6.40861 21.8056 5.3045 21.9537C5.28029 21.9571 5.2553 21.9589 5.23057 21.9589ZM5.65331 17.2627L5.65975 17.5119C5.68654 18.5821 5.71436 19.6824 5.7597 20.7783C6.70255 20.6698 7.65827 20.598 8.58747 20.5281C8.99913 20.497 9.41156 20.4658 9.82476 20.4319C9.80081 20.2326 9.77685 20.0335 9.75263 19.8339C9.64367 18.9322 9.53135 18.005 9.45458 17.0675C8.47 17.1663 7.48439 17.1995 6.52557 17.2316C6.23396 17.2414 5.94337 17.2511 5.65331 17.2627Z" fill="#F5F7FA"/>
<path d="M7.70554 19.6681C7.02648 19.6681 6.48525 19.1434 5.44863 18.1388C4.84041 17.5496 4.08304 16.816 3.02582 15.911C2.79268 15.7114 2.76589 15.3608 2.96579 15.1278C3.1657 14.895 3.51656 14.8675 3.75021 15.0679C4.83372 15.9948 5.63668 16.7736 6.22326 17.3418C6.89562 17.9932 7.47756 18.5568 7.71249 18.5568C7.98273 18.5398 8.57497 17.7955 9.32538 16.8528C9.89109 16.1419 10.5954 15.2577 11.5581 14.1481C11.759 13.9167 12.1099 13.8912 12.3428 14.0921C12.5749 14.2932 12.5998 14.6438 12.3989 14.8755C11.4512 15.967 10.7554 16.841 10.1964 17.5439C9.06365 18.967 8.54689 19.6161 7.79313 19.6645C7.7635 19.6671 7.73439 19.6681 7.70554 19.6681Z" fill="#F5F7FA"/>
<path d="M6.113 31.5358C5.81675 31.5358 5.57202 31.3041 5.5576 31.008L5.51921 30.2424C5.44219 28.7221 5.36285 27.1503 5.33966 25.6061C5.33528 25.3109 5.56301 25.064 5.85823 25.0439C7.68081 24.9202 9.43667 24.8482 11.226 24.8235C11.5333 24.8235 11.7796 25.0611 11.7894 25.3608C11.8404 26.9317 12.0102 28.6369 12.3087 30.5736C12.3546 30.8715 12.1544 31.1513 11.8577 31.2048C10.1904 31.5044 8.49563 31.517 6.85672 31.5294C6.85646 31.5291 6.11944 31.5358 6.113 31.5358ZM6.46206 26.1172C6.49272 27.4726 6.56227 28.8496 6.63002 30.186L6.64162 30.4203L6.84796 30.4185C8.2612 30.408 9.71772 30.3972 11.1276 30.1968C10.9038 28.6542 10.7631 27.253 10.6997 25.9428C9.28932 25.9703 7.89385 26.0274 6.46206 26.1172Z" fill="#F5F7FA"/>
<path d="M8.59763 29.7334C8.1888 29.7334 7.87478 29.4338 7.33869 28.9222C6.6872 28.3008 5.59674 27.2602 3.50753 25.8266C3.2543 25.6527 3.19042 25.3071 3.36405 25.0545C3.53819 24.8017 3.88442 24.7374 4.13764 24.9112C6.30053 26.3955 7.43143 27.4747 8.1074 28.1195C8.27149 28.2761 8.43945 28.4366 8.55924 28.5377C8.64219 28.423 8.75116 28.2535 8.85807 28.0879C9.3957 27.253 10.397 25.6996 12.6921 23.4087C12.9092 23.1919 13.2614 23.1919 13.4785 23.4087C13.6957 23.6255 13.6957 23.9771 13.4785 24.1939C11.268 26.4009 10.3087 27.8893 9.79345 28.6887C9.39802 29.3026 9.15947 29.673 8.70247 29.727C8.66692 29.7314 8.63214 29.7334 8.59763 29.7334Z" fill="#F5F7FA"/>
<path d="M7.25395 43.486C6.97779 43.486 6.7395 43.2811 6.70318 43.002C6.49323 41.3809 6.43449 39.7801 6.37833 38.2323C6.3652 37.8774 6.35232 37.5211 6.33737 37.1626C6.32552 36.8694 6.54372 36.6179 6.83611 36.5875C8.63215 36.4021 10.5495 36.2076 12.512 36.0441C12.6637 36.033 12.8101 36.0803 12.9234 36.1786C13.0368 36.2768 13.1053 36.4167 13.1138 36.5664C13.2202 38.455 13.3925 40.3907 13.5471 42.0349C13.5746 42.3248 13.3729 42.5866 13.0854 42.6347L12.5249 42.7291C10.8303 43.0143 9.07808 43.3096 7.30882 43.4835C7.29053 43.4853 7.27249 43.486 7.25395 43.486ZM7.46931 37.6387C7.47652 37.8233 7.48296 38.0078 7.48992 38.1919C7.54144 39.6019 7.58987 40.9424 7.7416 42.3212C9.29189 42.1473 10.8386 41.8865 12.3397 41.6337L12.3917 41.625C12.2652 40.2585 12.1328 38.7264 12.037 37.1991C10.4686 37.3347 8.93227 37.4882 7.46931 37.6387Z" fill="#F5F7FA"/>
<path d="M9.43864 40.9415C9.30443 40.9415 9.17382 40.8932 9.07206 40.8039C8.53134 40.3315 8.0187 39.8271 7.52255 39.3397C6.61036 38.4431 5.74866 37.5962 4.70998 36.9048C4.45443 36.7346 4.38513 36.3899 4.55567 36.1348C4.72621 35.8791 5.07166 35.8102 5.32695 35.9807C6.45347 36.7305 7.39349 37.6546 8.30285 38.5483C8.65448 38.8935 9.01436 39.2476 9.38274 39.5884C9.69986 39.2098 10.0147 38.8325 10.3287 38.4562C11.4678 37.0892 12.6461 35.6757 13.8471 34.3357C14.0522 34.1076 14.4033 34.0873 14.6325 34.292C14.8613 34.4967 14.8809 34.8475 14.6763 35.0762C13.4883 36.402 12.3687 37.7448 11.1834 39.1669C10.7468 39.6908 10.3078 40.217 9.86421 40.7438C9.76787 40.8579 9.63004 40.9289 9.48063 40.9405C9.46698 40.941 9.45281 40.9415 9.43864 40.9415Z" fill="#F5F7FA"/>
<path d="M16.1101 19.1931C15.8102 19.1931 15.5629 18.9544 15.5547 18.6532C15.5459 18.3466 15.7878 18.091 16.0949 18.0827C18.6684 18.0112 21.2499 17.842 23.7461 17.6784C25.0622 17.592 26.3822 17.5056 27.7151 17.4315C28.025 17.4207 28.2839 17.6496 28.3014 17.9554C28.3184 18.2617 28.0835 18.5238 27.7767 18.5408C26.4477 18.6146 25.1315 18.7005 23.8188 18.7867C21.3122 18.951 18.7199 19.121 16.1101 19.1931Z" fill="#F5F7FA"/>
<path d="M16.4358 27.9871C16.1679 27.9871 15.9317 27.7932 15.8876 27.5208C15.8384 27.2181 16.0445 26.9329 16.3475 26.8837C18.4972 26.5355 20.6913 26.5219 22.8132 26.508C24.7045 26.4961 26.6601 26.4838 28.5409 26.2299C28.8454 26.1865 29.1256 26.4018 29.1666 26.7058C29.2078 27.0098 28.9942 27.2896 28.69 27.3305C26.7386 27.5941 24.7468 27.6067 22.8204 27.6186C20.7407 27.6319 18.5902 27.6453 16.5257 27.9797C16.4956 27.9848 16.4654 27.9871 16.4358 27.9871Z" fill="#F5F7FA"/>
<path d="M18.1716 38.0024C17.5866 38.0024 16.9966 37.9932 16.4186 37.9747C16.1115 37.9649 15.8706 37.7085 15.8804 37.4019C15.8902 37.0956 16.147 36.8582 16.4541 36.8646C19.6222 36.9654 22.8778 36.7895 26.4779 36.326C26.7814 36.2839 27.0611 36.5014 27.1008 36.8055C27.1402 37.1097 26.9251 37.3883 26.6206 37.4274C23.6167 37.8147 20.853 38.0024 18.1716 38.0024Z" fill="#F5F7FA"/>
<path d="M20.6225 55.5832C20.4878 55.5832 20.3546 55.5344 20.2503 55.4405C20.0859 55.2926 20.0251 55.0617 20.0949 54.8523C26.1217 36.8303 37.7293 28.8284 41.1241 28.8284C43.5175 28.8284 45.0449 31.5871 45.0449 33.4867C45.0449 35.7333 39.8291 42.1218 29.5425 52.4755C29.4523 52.5663 29.3336 52.6229 29.206 52.6368C26.0119 52.973 23.973 53.9933 22.1741 54.8932C21.7171 55.1216 21.2859 55.3376 20.8523 55.5341C20.7789 55.567 20.7003 55.5832 20.6225 55.5832ZM41.1241 29.9389C39.8788 29.9389 36.3598 31.7725 32.4347 35.8496C29.2194 39.1888 24.794 44.9955 21.586 53.9446C21.6156 53.9297 21.6457 53.9151 21.6754 53.9002C23.431 53.0221 25.6072 51.9331 28.891 51.5537C42.4641 37.8786 43.9325 34.364 43.9325 33.4865C43.9325 32.2357 42.866 29.9389 41.1241 29.9389Z" fill="#F5F7FA"/>
<path d="M24.4593 53.2785C24.3025 53.2785 24.1469 53.2127 24.0369 53.0848L23.78 52.7888C23.1971 52.1198 22.6463 51.4879 22.2354 50.5651C22.111 50.2845 22.2372 49.9566 22.5178 49.8318C22.7988 49.7068 23.1273 49.8339 23.2522 50.1137C23.5951 50.8845 24.0698 51.429 24.6196 52.0597L24.8813 52.3616C25.0812 52.5944 25.0544 52.9452 24.8213 53.1448C24.7159 53.2345 24.5871 53.2785 24.4593 53.2785Z" fill="#F5F7FA"/>
<path d="M39.8128 38.9699C39.6881 38.9699 39.5632 38.9283 39.4596 38.8434C37.7422 37.4317 36.103 35.8952 34.5177 34.4096L34.1071 34.0248C33.8832 33.8152 33.8716 33.4636 34.0821 33.2399C34.292 33.0161 34.6437 33.0056 34.8683 33.2149L35.2789 33.5997C36.8511 35.0732 38.4774 36.597 40.1665 37.9857C40.4038 38.1806 40.4378 38.5304 40.2425 38.7673C40.1325 38.9008 39.9733 38.9699 39.8128 38.9699Z" fill="#F5F7FA"/>
<path d="M40.9029 37.2154C40.8056 37.2154 40.7066 37.1902 40.6173 37.1362C38.9196 36.1193 37.5615 34.6525 36.3466 33.2189C36.1482 32.9846 36.1776 32.6343 36.412 32.4362C36.6462 32.2384 36.9976 32.268 37.1959 32.5015C38.3487 33.8624 39.6306 35.2502 41.1891 36.1841C41.4527 36.3417 41.5382 36.683 41.38 36.9459C41.276 37.1193 41.0915 37.2154 40.9029 37.2154Z" fill="#F5F7FA"/>
<path d="M41.4468 34.5012C41.3306 34.5012 41.2136 34.4649 41.1132 34.39C41.0374 34.3329 40.9614 34.2797 40.887 34.2272C40.5096 33.9623 40.0819 33.6619 39.8434 33.0665C39.7293 32.7815 39.8681 32.4585 40.153 32.3446C40.4377 32.2306 40.762 32.3692 40.8762 32.6537C40.9869 32.9299 41.1853 33.0791 41.5271 33.3193C41.6109 33.378 41.6959 33.4379 41.7809 33.5014C42.0264 33.6853 42.0764 34.0336 41.8922 34.2792C41.7829 34.4245 41.616 34.5012 41.4468 34.5012Z" fill="#F5F7FA"/>
<path d="M29.3004 51.4142C29.2643 51.4142 29.2272 51.4106 29.1904 51.4034C28.8895 51.3435 28.694 51.0505 28.7545 50.7499C28.7795 50.6254 28.8194 50.479 28.8627 50.3232C28.9269 50.0925 29.0062 49.8072 29.0106 49.6228C28.9688 49.6167 28.9062 49.611 28.8158 49.611C27.6324 49.611 27.2207 49.842 27.1597 49.8811C27.0216 50.0151 26.883 50.0387 26.7722 50.0387C26.4651 50.0387 26.216 49.79 26.216 49.4829C26.216 49.4106 26.216 49.27 26.3554 49.1131C26.3964 49.0362 26.5566 48.6771 26.5566 47.772C26.5566 47.6507 26.5566 47.3659 25.9548 47.3659C25.8147 47.3659 25.6676 47.3757 25.5182 47.3855C25.3378 47.3965 25.1539 47.4084 24.971 47.4084C24.6271 47.4084 24.3471 47.3685 24.0908 47.2834C23.7994 47.1869 23.6418 46.8724 23.7389 46.5812C23.8355 46.2903 24.1505 46.1314 24.4421 46.2299C24.582 46.2762 24.7502 46.2978 24.9713 46.2978C25.1302 46.2978 25.2902 46.2873 25.4471 46.2772C25.6212 46.2659 25.7918 46.2556 25.9551 46.2556C27.2202 46.2556 27.6692 47.0727 27.6692 47.7723C27.6692 48.0683 27.6543 48.3402 27.6246 48.5868C27.9716 48.5292 28.3699 48.5004 28.8161 48.5004C29.9539 48.5004 30.1237 49.1936 30.1237 49.6064C30.1237 49.9412 30.0235 50.3018 29.9351 50.62C29.9001 50.7473 29.8658 50.8666 29.8457 50.9682C29.7922 51.2321 29.5601 51.4142 29.3004 51.4142ZM27.206 49.8317C27.1937 49.8458 27.1818 49.8587 27.1694 49.871C27.181 49.8602 27.1931 49.8471 27.206 49.8317Z" fill="#F5F7FA"/>
<path d="M27.2017 49.3748C27.0703 49.3748 26.9384 49.3285 26.8328 49.2347C26.6027 49.0307 26.5821 48.6802 26.7864 48.451C28.2038 46.8589 29.6855 45.2782 31.1186 43.7497C33.2081 41.5208 35.3686 39.2161 37.3618 36.8414C37.5588 36.6068 37.91 36.5757 38.1452 36.7727C38.3809 36.9695 38.4115 37.3198 38.2142 37.5551C36.202 39.9527 34.0304 42.269 31.9309 44.5087C30.5027 46.0321 29.0258 47.6076 27.6177 49.1886C27.508 49.3121 27.3552 49.3748 27.2017 49.3748Z" fill="#F5F7FA"/>
</svg>
