<svg width="16" height="13" viewBox="0 0 16 13" fill="none" xmlns="http://www.w3.org/2000/svg">
<path d="M16 3.37276V10.4998C16 11.1628 15.7366 11.7987 15.2678 12.2675C14.7989 12.7364 14.163 12.9998 13.5 12.9998H2.5C1.83696 12.9998 1.20107 12.7364 0.732233 12.2675C0.263392 11.7987 0 11.1628 0 10.4998V3.37276L7.746 7.93076C7.82295 7.97614 7.91066 8.00008 8 8.00008C8.08934 8.00008 8.17705 7.97614 8.254 7.93076L16 3.37276ZM13.5 -0.00024411C14.1151 -0.000340857 14.7087 0.226362 15.1672 0.636496C15.6257 1.04663 15.9168 1.6114 15.985 2.22276L8 6.91976L0.0150001 2.22276C0.0831583 1.6114 0.374324 1.04663 0.832795 0.636496C1.29127 0.226362 1.88485 -0.000340857 2.5 -0.00024411H13.5Z" fill="#9AA5B1"/>
</svg>
