<svg width="20" height="14" viewBox="0 0 20 14" fill="none" xmlns="http://www.w3.org/2000/svg">
<path d="M0.200501 14C0.133668 13.535 0.0835422 13.0534 0.0501252 12.5552C0.0167084 12.0569 0 11.6916 0 11.4591C0 9.23369 0.401003 7.12455 1.20301 5.13167C2.00501 3.10558 2.99081 1.39502 4.1604 0L9.22306 1.14591C8.58814 2.57414 8.07018 4.20166 7.66917 6.02847C7.30159 7.82206 7.11779 9.53262 7.11779 11.1601C7.11779 11.2266 7.11779 11.376 7.11779 11.6085C7.11779 11.8078 7.11779 12.0569 7.11779 12.3559C7.15121 12.6216 7.16792 12.9039 7.16792 13.2028C7.20134 13.5018 7.23475 13.7675 7.26817 14H0.200501ZM10.9774 14C10.9106 13.535 10.8605 13.0534 10.8271 12.5552C10.7937 12.0569 10.7769 11.6916 10.7769 11.4591C10.7769 9.23369 11.1779 7.12455 11.98 5.13167C12.782 3.10558 13.7678 1.39502 14.9373 0L20 1.14591C19.3651 2.57414 18.8471 4.20166 18.4461 6.02847C18.0785 7.82206 17.8947 9.53262 17.8947 11.1601C17.8947 11.2266 17.8947 11.376 17.8947 11.6085C17.8947 11.8078 17.8947 12.0569 17.8947 12.3559C17.9282 12.6216 17.9449 12.9039 17.9449 13.2028C17.9783 13.5018 18.0117 13.7675 18.0451 14H10.9774Z" fill="#323F4B"/>
</svg>
