<svg width="39" height="48" viewBox="0 0 39 48" fill="none" xmlns="http://www.w3.org/2000/svg">
<mask id="path-1-inside-1" fill="white">
<path d="M24 48C20.2155 48 16.4846 47.105 13.1119 45.3881C9.73927 43.6712 6.82045 41.181 4.59376 38.1208C2.36706 35.0607 0.895619 31.5173 0.29955 27.78C-0.296519 24.0427 -0.000313899 20.2175 1.16398 16.6165C2.32828 13.0155 4.32766 9.7409 6.9989 7.06002C9.67015 4.37914 12.9375 2.36798 16.5343 1.19072C20.1311 0.0134647 23.9552 -0.296515 27.6947 0.28609C31.4341 0.868695 34.9827 2.32737 38.0508 4.54303L36.6396 6.49719C33.8797 4.50406 30.6874 3.19189 27.3236 2.6678C23.9597 2.14371 20.5196 2.42255 17.2841 3.48158C14.0486 4.5406 11.1094 6.34977 8.70641 8.76139C6.30346 11.173 4.50488 14.1187 3.45752 17.358C2.41016 20.5974 2.1437 24.0385 2.67991 27.4004C3.21611 30.7623 4.53977 33.9498 6.54283 36.7026C8.54588 39.4554 11.1715 41.6955 14.2055 43.24C17.2394 44.7845 20.5956 45.5896 24 45.5896L24 48Z"/>
</mask>
<path d="M24 48C20.2155 48 16.4846 47.105 13.1119 45.3881C9.73927 43.6712 6.82045 41.181 4.59376 38.1208C2.36706 35.0607 0.895619 31.5173 0.29955 27.78C-0.296519 24.0427 -0.000313899 20.2175 1.16398 16.6165C2.32828 13.0155 4.32766 9.7409 6.9989 7.06002C9.67015 4.37914 12.9375 2.36798 16.5343 1.19072C20.1311 0.0134647 23.9552 -0.296515 27.6947 0.28609C31.4341 0.868695 34.9827 2.32737 38.0508 4.54303L36.6396 6.49719C33.8797 4.50406 30.6874 3.19189 27.3236 2.6678C23.9597 2.14371 20.5196 2.42255 17.2841 3.48158C14.0486 4.5406 11.1094 6.34977 8.70641 8.76139C6.30346 11.173 4.50488 14.1187 3.45752 17.358C2.41016 20.5974 2.1437 24.0385 2.67991 27.4004C3.21611 30.7623 4.53977 33.9498 6.54283 36.7026C8.54588 39.4554 11.1715 41.6955 14.2055 43.24C17.2394 44.7845 20.5956 45.5896 24 45.5896L24 48Z" stroke="#32B978" stroke-width="4" mask="url(#path-1-inside-1)"/>
</svg>
