<svg width="23" height="18" viewBox="0 0 23 18" fill="none" xmlns="http://www.w3.org/2000/svg">
<mask id="path-1-inside-1" fill="white">
<path d="M23 18C17.9328 18 12.9957 16.3962 8.89588 13.4184C4.79605 10.4406 1.74391 6.24152 0.176724 1.42281L2.46898 0.677298C3.87877 5.01204 6.62436 8.78935 10.3124 11.4681C14.0005 14.1468 18.4418 15.5896 23 15.5896L23 18Z"/>
</mask>
<path d="M23 18C17.9328 18 12.9957 16.3962 8.89588 13.4184C4.79605 10.4406 1.74391 6.24152 0.176724 1.42281L2.46898 0.677298C3.87877 5.01204 6.62436 8.78935 10.3124 11.4681C14.0005 14.1468 18.4418 15.5896 23 15.5896L23 18Z" stroke="#32B978" stroke-width="4" mask="url(#path-1-inside-1)"/>
</svg>
