<svg width="48" height="48" viewBox="0 0 48 48" fill="none" xmlns="http://www.w3.org/2000/svg">
<mask id="path-1-inside-1" fill="white">
<path d="M24 48C18.9326 48 13.9953 46.3961 9.89533 43.418C5.79539 40.4399 2.74329 36.2405 1.1763 31.4215C-0.390683 26.6025 -0.392135 21.4111 1.17216 16.5913C2.73645 11.7714 5.7862 7.57028 9.88447 4.58991C13.9827 1.60954 18.9192 0.00283887 23.9866 3.75624e-06C29.054 -0.00283135 33.9922 1.59834 38.0938 4.57413C42.1954 7.54991 45.2499 11.7476 46.8195 16.5657C48.3892 21.3839 48.3936 26.5752 46.832 31.396L44.5389 30.6532C45.9436 26.3166 45.9397 21.6466 44.5277 17.3124C43.1156 12.9781 40.3679 9.20207 36.6783 6.52517C32.9886 3.84826 28.5464 2.4079 23.9879 2.41045C19.4295 2.413 14.9888 3.85833 11.3022 6.53936C7.6155 9.2204 4.87205 12.9995 3.46487 17.3354C2.05769 21.6712 2.059 26.3411 3.4686 30.6761C4.87821 35.0112 7.62377 38.7888 11.3119 41.4677C15.0001 44.1467 19.4416 45.5896 24 45.5896L24 48Z"/>
</mask>
<path d="M24 48C18.9326 48 13.9953 46.3961 9.89533 43.418C5.79539 40.4399 2.74329 36.2405 1.1763 31.4215C-0.390683 26.6025 -0.392135 21.4111 1.17216 16.5913C2.73645 11.7714 5.7862 7.57028 9.88447 4.58991C13.9827 1.60954 18.9192 0.00283887 23.9866 3.75624e-06C29.054 -0.00283135 33.9922 1.59834 38.0938 4.57413C42.1954 7.54991 45.2499 11.7476 46.8195 16.5657C48.3892 21.3839 48.3936 26.5752 46.832 31.396L44.5389 30.6532C45.9436 26.3166 45.9397 21.6466 44.5277 17.3124C43.1156 12.9781 40.3679 9.20207 36.6783 6.52517C32.9886 3.84826 28.5464 2.4079 23.9879 2.41045C19.4295 2.413 14.9888 3.85833 11.3022 6.53936C7.6155 9.2204 4.87205 12.9995 3.46487 17.3354C2.05769 21.6712 2.059 26.3411 3.4686 30.6761C4.87821 35.0112 7.62377 38.7888 11.3119 41.4677C15.0001 44.1467 19.4416 45.5896 24 45.5896L24 48Z" stroke="#32B978" stroke-width="4" mask="url(#path-1-inside-1)"/>
</svg>
