<svg width="24" height="44" viewBox="0 0 24 44" fill="none" xmlns="http://www.w3.org/2000/svg">
<mask id="path-1-inside-1" fill="white">
<path d="M24 44C18.9273 44 13.985 42.3927 9.88265 39.4088C5.78033 36.4249 2.72898 32.2179 1.16663 27.3917C-0.395708 22.5656 -0.38868 17.3685 1.18671 12.5466C2.7621 7.72465 5.82482 3.52591 9.9352 0.553115L11.3478 2.50627C7.65025 5.18049 4.89513 8.95753 3.47796 13.2951C2.0608 17.6328 2.05448 22.3079 3.4599 26.6493C4.86533 30.9908 7.61023 34.7752 11.3005 37.4595C14.9908 40.1437 19.4367 41.5896 24 41.5896L24 44Z"/>
</mask>
<path d="M24 44C18.9273 44 13.985 42.3927 9.88265 39.4088C5.78033 36.4249 2.72898 32.2179 1.16663 27.3917C-0.395708 22.5656 -0.38868 17.3685 1.18671 12.5466C2.7621 7.72465 5.82482 3.52591 9.9352 0.553115L11.3478 2.50627C7.65025 5.18049 4.89513 8.95753 3.47796 13.2951C2.0608 17.6328 2.05448 22.3079 3.4599 26.6493C4.86533 30.9908 7.61023 34.7752 11.3005 37.4595C14.9908 40.1437 19.4367 41.5896 24 41.5896L24 44Z" stroke="#32B978" stroke-width="4" mask="url(#path-1-inside-1)"/>
</svg>
