<svg width="24" height="20" viewBox="0 0 24 20" fill="none" xmlns="http://www.w3.org/2000/svg">
<g clip-path="url(#clip0)">
<g opacity="0.01">
<path opacity="0.01" d="M24 0H0V20H24V0Z" fill="#2A9D66"/>
</g>
<path d="M17.4087 11.164C17.1117 11.164 16.8337 11.246 16.5947 11.385C16.4517 10.624 15.7877 10.047 14.9887 10.047C14.6637 10.047 14.3627 10.144 14.1077 10.307C13.8707 9.693 13.2787 9.259 12.5847 9.259C12.2787 9.259 11.9967 9.344 11.7517 9.489V5.644C11.7527 4.736 11.0207 4 10.1177 4C9.21469 4 8.48169 4.736 8.48169 5.644V13.061L7.90369 12.405C7.30469 11.726 6.27169 11.666 5.59569 12.268C4.91969 12.872 4.85769 13.91 5.45869 14.589L9.02569 18.627C9.74369 19.332 10.9667 20 12.0177 20H15.5307C17.4717 20 19.0457 18.585 19.0457 16.838L19.0437 12.808C19.0437 11.9 18.3117 11.164 17.4087 11.164Z" fill="#2A9D66"/>
<path d="M21.354 0.146999C21.284 0.076999 21.195 0.028999 21.098 0.00999904C21.001 -0.010001 20.9 -9.574e-07 20.809 0.037999C20.718 0.075999 20.639 0.139999 20.584 0.221999C20.529 0.303999 20.5 0.400999 20.5 0.499999V1.5C20.5 1.633 20.448 1.759 20.354 1.853C20.26 1.947 20.133 2 20 2H17C16.735 2 16.48 2.105 16.293 2.293C16.105 2.48 16 2.735 16 3C16 3.265 16.106 3.519 16.293 3.707C16.48 3.895 16.735 4 17 4H20C20.133 4 20.26 4.052 20.354 4.146C20.447 4.24 20.5 4.367 20.5 4.5V5.5C20.5 5.599 20.529 5.696 20.584 5.778C20.639 5.86 20.718 5.924 20.809 5.962C20.87 5.989 20.937 6.003 21.004 6.003C21.07 6.003 21.135 5.99 21.196 5.965C21.256 5.94 21.312 5.903 21.358 5.857L23.858 3.357C23.952 3.263 24.004 3.136 24.004 3.003C24.004 2.871 23.952 2.744 23.858 2.65L21.354 0.146999Z" fill="#2A9D66"/>
<path d="M2.65 5.856C2.72 5.926 2.809 5.974 2.906 5.993C3.003 6.013 3.104 6.003 3.195 5.965C3.287 5.927 3.365 5.863 3.42 5.781C3.475 5.699 3.504 5.602 3.504 5.503V4.503C3.504 4.37 3.557 4.243 3.651 4.149C3.745 4.056 3.871 4.003 4.004 4.003H7.004C7.27 4.003 7.524 3.898 7.712 3.71C7.899 3.523 8.004 3.268 8.004 3.003C8.004 2.738 7.9 2.484 7.712 2.296C7.524 2.108 7.269 2.003 7.004 2.003H4.004C3.872 2.003 3.745 1.951 3.651 1.857C3.557 1.763 3.504 1.636 3.504 1.503V0.503C3.504 0.404 3.475 0.307 3.42 0.225C3.365 0.143 3.286 0.079 3.195 0.041C3.134 0.014 3.067 0 3 0C2.935 0 2.87 0.013 2.809 0.038C2.748 0.063 2.693 0.1 2.646 0.146L0.146 2.646C0.053 2.74 0 2.867 0 3C0 3.132 0.052 3.259 0.146 3.353L2.65 5.856Z" fill="#2A9D66"/>
</g>
<defs>
<clipPath id="clip0">
<rect width="24" height="20" fill="white"/>
</clipPath>
</defs>
</svg>
