<svg width="57" height="48" viewBox="0 0 57 48" fill="none" xmlns="http://www.w3.org/2000/svg">
<g clip-path="url(#clip0)">
<path d="M51.6751 36.4803C51.3469 33.8778 51.1051 31.1998 50.2314 28.6897C50.1007 28.3136 49.4349 28.1701 49.2174 28.5719C48.9018 29.1544 48.6713 29.7522 48.5059 30.36C48.2667 29.6755 47.9525 29.0297 47.5268 28.4524C47.1949 28.0025 46.4265 27.9569 46.1062 28.4524C44.539 30.8756 44.927 34.2982 45.0811 36.9887C45.1693 38.5239 45.3392 40.0602 45.51 41.59C45.5427 41.8839 45.5694 42.1569 45.6018 42.4132C42.7947 42.4674 39.9822 42.2216 37.1764 42.1131C33.7525 41.9808 30.3246 41.9252 26.8973 41.9475C20.0095 41.9928 12.7195 42.3048 6.25882 44.5538C5.90493 44.6771 5.78124 45.2393 6.25882 45.3084C6.77049 45.3826 7.28386 45.4462 7.79778 45.5051C7.46503 45.602 7.14185 45.7135 6.8353 45.8486C6.62032 45.9433 6.62567 46.2519 6.8353 46.3481C9.58864 47.6098 13.6274 47.1792 16.6546 47.2593C20.2701 47.355 23.907 47.3373 27.5166 47.5287C31.1448 47.7211 34.7381 48.022 38.3781 47.9992C40.2552 47.9874 42.1325 47.9591 44.0096 47.9335C45.7926 47.9092 47.6823 48.0751 49.3904 47.5878C50.1472 47.3721 50.6214 46.8429 50.7969 46.2534C51.4616 46.0695 52.0268 45.5347 52.0989 44.8051C52.3753 42.0114 52.0251 39.2557 51.6751 36.4803Z" fill="#52606D"/>
<path d="M32.1115 26.9599C31.9715 26.508 31.6097 26.2755 31.1499 26.1049C30.572 25.8902 30.0118 25.7038 29.408 25.5559C28.831 25.4146 28.4833 25.9538 28.6952 26.3807C28.9595 26.9133 29.2601 27.4034 29.5951 27.9035C30.0916 28.6453 31.2772 28.7042 31.8653 28.0272C32.1307 27.7213 32.229 27.339 32.1115 26.9599Z" fill="#52606D"/>
<path d="M46.7312 25.9502C45.9978 25.3091 44.893 25.252 43.9243 25.1292C43.3461 25.056 42.8362 25.521 43.1464 26.0289C43.5732 26.7269 44.0503 27.7127 44.8981 28.0625C45.5898 28.3478 46.3604 28.2784 46.8492 27.716C47.302 27.1951 47.2724 26.4232 46.7312 25.9502Z" fill="#52606D"/>
<path d="M15.2897 34.3319C15.0175 34.1765 14.7546 34.1074 14.4509 34.0681C14.4712 34.0665 14.4517 34.058 14.3528 34.0367C14.3477 34.034 14.3424 34.0315 14.3373 34.0287C14.3325 34.0245 14.3275 34.0202 14.3227 34.0157C14.2587 33.916 14.1764 33.812 14.0908 33.7356C13.9012 33.567 13.8155 33.5773 13.5808 33.4773C14.0006 33.6562 13.507 33.4613 13.3743 33.4485C12.4064 33.356 12.0151 34.38 12.0004 35.0657C11.9804 36.0097 12.6797 37.2503 13.838 37.3944C14.339 37.4568 14.8383 37.4843 15.2899 37.2255C15.6399 37.0249 15.8983 36.7668 16.0608 36.4243C16.4322 35.6412 16.0876 34.7871 15.2897 34.3319Z" fill="#52606D"/>
<path d="M55.8869 15.0254C56.7719 13.7842 55.7091 12.0505 53.8979 11.8674C51.5241 11.6271 49.0858 10.0312 46.6759 10.0615C46.6466 10.0077 46.6232 9.95103 46.5919 9.89792C46.3837 9.54516 45.9898 9.45146 45.6264 9.53113C45.6016 9.45697 45.5706 9.38557 45.5252 9.32294C45.2795 8.98422 44.7343 8.70337 44.2719 8.86947C43.8713 9.01353 43.5577 9.15358 43.3286 9.49581C43.2001 9.68772 43.0973 9.90593 43.0283 10.1214C42.9922 10.2334 42.9682 10.3466 42.9511 10.4599C41.6448 10.7397 40.5784 11.6346 39.5781 12.5488C37.9569 14.0305 36.5771 15.5237 34.5854 16.6478C32.5748 17.7825 30.419 18.7508 28.3112 19.7329C27.1089 20.2931 25.8762 20.8062 24.6838 21.3822C23.4737 21.9664 22.1114 23.0147 20.7671 22.0073C20.6248 21.9008 20.4366 21.8662 20.2771 21.9168C20.3969 21.7272 20.5054 21.5318 20.5857 21.3223C20.604 21.2742 20.6121 21.2244 20.6243 21.175C20.8054 21.2594 20.99 21.3366 21.1796 21.4022C23.1908 22.0985 25.0056 19.3348 23.3235 18.1275C22.3165 17.4047 21.0658 16.9748 19.981 16.3322C19.1538 15.8421 18.067 14.8477 17.0163 14.9234C16.5709 14.9555 16.29 15.1617 16.1308 15.5229C15.6569 16.5982 16.9124 18.0305 17.6283 18.8147C17.743 18.9402 17.8613 19.066 17.9828 19.191C17.8673 19.2231 17.7512 19.2599 17.6348 19.3053C16.581 19.7159 15.7563 20.847 15.0294 21.622C14.2362 22.4673 13.6293 23.3782 13.32 24.4485C13.1326 25.0966 13.6445 25.8147 14.3537 25.9377C14.3408 25.9853 14.3256 26.0321 14.3163 26.0812C14.2371 26.4996 14.4346 27.0247 14.9767 27.1154C16.6131 27.3895 18.473 26.2441 19.5054 25.1876C20.2718 24.4034 20.0605 23.4749 19.4406 22.9222C19.5851 22.7812 19.726 22.6381 19.8559 22.4886C19.4882 23.6237 20.7595 24.6036 22.0356 24.906C21.7586 25.1535 21.4966 25.4133 21.272 25.7014C21.1821 25.8167 21.3055 25.9472 21.4371 25.9575C23.7087 26.1338 25.9191 25.1124 27.9021 24.2528C30.3004 23.2131 32.661 22.1168 35.0007 20.9773C36.9814 20.0125 40.1783 18.97 42.5481 17.445C42.8279 18.0984 43.4636 18.6406 44.6261 18.9768C46.1127 19.4067 47.8841 19.1642 49.4042 18.9921C51.2393 18.7841 53.1577 18.6972 54.9365 18.2362C56.6318 17.797 56.8603 15.9661 55.8869 15.0254Z" fill="#52606D"/>
<path d="M27.5129 8.96133C27.3053 8.05515 26.8463 7.18704 26.1889 6.48354C24.6277 4.81322 22.3641 4.75059 20.1159 5.12038C14.7067 6.01053 10.3592 9.2968 5.09906 10.4297C4.89253 10.4743 4.93225 10.7752 5.15005 10.7639C6.68451 10.6848 8.14514 10.4638 9.57676 10.1626C9.30204 10.3445 9.05128 10.542 8.8408 10.7627C8.67175 10.9398 8.7498 11.1623 8.9845 11.246C10.9331 11.9422 13.8152 11.2021 15.8284 10.8636C16.7337 10.7113 17.9503 10.6602 19.0841 10.4655C19.2566 10.562 19.4569 10.6234 19.644 10.6414C20.6527 10.7394 21.6848 10.5615 22.7115 10.6998C23.8833 10.8576 24.2896 11.7182 24.7018 12.5766C25.0456 13.2923 25.5203 14.4165 26.5163 14.5495C27.6882 14.7061 28.5036 13.5228 28.7335 12.6617C29.0877 11.3314 28.5112 9.99804 27.5129 8.96133Z" fill="#52606D"/>
<path d="M2.45771 46.2395C2.31148 46.2395 2.16947 46.1927 2.05818 46.1065C1.93336 46.0098 1.85813 45.8717 1.85024 45.7247C1.77726 44.375 1.74402 43.0066 1.71161 41.683C1.67583 40.2096 1.63864 38.6861 1.54679 37.1922C1.53777 37.0434 1.59778 36.8978 1.71359 36.7898C1.82883 36.6819 1.98915 36.6355 2.15707 36.6217L2.67917 36.6227C6.97598 36.6227 11.3728 36.4388 15.6251 36.2607C19.8805 36.0828 24.2807 35.8984 28.5835 35.8984C28.9193 35.8984 29.1918 36.1405 29.1918 36.4393C29.1918 36.7382 28.9193 36.9802 28.5835 36.9802C24.3092 36.9802 19.9239 37.1636 15.6826 37.3413C11.454 37.5181 7.08277 37.7013 2.79441 37.7045C2.864 39.0296 2.89669 40.364 2.92825 41.6597C2.95558 42.7922 2.98403 43.9576 3.037 45.1114C7.73814 44.7609 12.5224 44.6777 17.1562 44.5973C19.5962 44.5549 22.1199 44.5111 24.5833 44.4287C24.9251 44.4181 25.2021 44.6504 25.2142 44.9488C25.2269 45.2474 24.9651 45.4984 24.6293 45.5097C22.1543 45.5926 19.6255 45.6365 17.1799 45.6788C12.3587 45.7625 7.37354 45.8489 2.51209 46.2378C2.49434 46.239 2.47602 46.2395 2.45771 46.2395Z" fill="#F5F7FA"/>
<path d="M29.3749 45.7619C29.039 45.7619 28.7666 45.5199 28.7666 45.221C28.7666 44.9221 29.039 44.6801 29.3749 44.6801C35.2217 44.6801 41.2417 44.4458 47.0637 44.2193L48.7672 44.1534C48.229 40.9536 48.1107 37.6894 47.9957 34.5261C47.9205 32.4567 47.8433 30.3227 47.6489 28.2169C43.6164 28.2598 39.5421 28.3702 35.5958 28.4772C30.4163 28.618 25.0612 28.7596 19.7602 28.7561C19.8441 31.4095 19.8568 34.1118 19.8695 36.7308C19.883 39.4734 19.8965 42.3095 19.9915 45.0814C20.0019 45.3801 19.7379 45.6296 19.4021 45.6389C19.0761 45.6474 18.7853 45.4134 18.7754 45.1147C18.6799 42.3285 18.6661 39.4852 18.6526 36.7356C18.6391 33.9394 18.6253 31.048 18.5249 28.2307C18.5199 28.0841 18.5816 27.9418 18.6968 27.8364C18.8112 27.7316 18.9684 27.6725 19.133 27.6725C19.1338 27.6725 19.1347 27.6725 19.1352 27.6725C24.6253 27.6945 30.1844 27.5417 35.5586 27.3957C39.6503 27.2847 43.8801 27.1697 48.0648 27.1303C48.091 27.1248 48.1177 27.1208 48.1451 27.1186C48.4733 27.0898 48.7739 27.3037 48.8097 27.5993C48.81 27.6021 48.8106 27.6051 48.8109 27.6079C49.0453 29.9095 49.1298 32.2385 49.2118 34.4908C49.3321 37.8177 49.4572 41.258 50.0737 44.5791C50.1021 44.7317 50.0554 44.888 49.9458 45.0083C49.8362 45.1283 49.6736 45.2009 49.4998 45.2077L47.1166 45.2999C41.2817 45.5274 35.2484 45.7619 29.3749 45.7619Z" fill="#F5F7FA"/>
<path d="M33.6474 36.9799C33.3115 36.9799 33.0391 36.7379 33.0391 36.439C33.0391 36.1401 33.3115 35.8981 33.6474 35.8981C37.1623 35.8981 40.7513 35.5869 44.2223 35.2858C45.6528 35.1615 47.132 35.0332 48.5896 34.9283C48.9212 34.9045 49.2182 35.1259 49.245 35.4236C49.2723 35.7215 49.0229 35.9825 48.6876 36.0066C47.24 36.111 45.7661 36.2388 44.3401 36.3626C40.8404 36.666 37.2212 36.9799 33.6474 36.9799Z" fill="#F5F7FA"/>
<path d="M36.5724 45.6624C36.2678 45.6624 36.0043 45.4592 35.9688 45.1834C35.7784 43.7158 35.6068 42.2231 35.4405 40.7798C35.2782 39.367 35.1098 37.9066 34.9249 36.4736C34.8866 36.1767 35.1261 35.9086 35.46 35.8743C35.7871 35.8397 36.0953 36.0529 36.1337 36.3498C36.3193 37.7896 36.4881 39.2535 36.651 40.6695C36.8169 42.1096 36.988 43.5985 37.1779 45.0594C37.2162 45.356 36.977 45.6243 36.6431 45.6587C36.6191 45.6614 36.5958 45.6624 36.5724 45.6624Z" fill="#F5F7FA"/>
<path d="M23.6794 28.8739C23.645 28.8739 23.6104 28.8714 23.5757 28.8661C23.2446 28.8153 23.0223 28.5357 23.079 28.2413C23.0947 28.1586 23.1026 28.0747 23.1026 27.9845C23.1026 27.7608 23.0536 27.5298 23.0012 27.285C22.9409 27.0022 22.8789 26.7098 22.8789 26.3843C22.8789 26.2566 22.8893 26.1301 22.9091 26.0083C22.9508 25.7553 23.1863 25.5626 23.4731 25.5468C24.4751 25.4912 25.4897 25.4864 26.4713 25.4817C27.2121 25.4779 27.9776 25.4742 28.7234 25.4486C28.8857 25.4456 29.0615 25.5017 29.1821 25.6112C29.3021 25.7204 29.3647 25.87 29.354 26.0226L29.3455 26.1428C29.325 26.4319 29.3055 26.7048 29.3055 26.9799C29.3055 27.3474 29.3413 27.6556 29.4177 27.9492C29.4932 28.2403 29.2889 28.5307 28.9618 28.5981C28.6341 28.6662 28.3078 28.4838 28.2317 28.193C28.1343 27.8172 28.0886 27.4318 28.0886 26.9799C28.0886 26.8343 28.0934 26.6897 28.1004 26.5474C27.555 26.5582 27.01 26.5607 26.4778 26.5635C25.6985 26.5672 24.898 26.571 24.1091 26.6006C24.1274 26.7566 24.1615 26.917 24.197 27.0836C24.2573 27.3664 24.3193 27.6588 24.3193 27.9843C24.3193 28.1368 24.3057 28.2806 24.2781 28.4242C24.2271 28.688 23.9699 28.8739 23.6794 28.8739Z" fill="#F5F7FA"/>
<path d="M38.6081 28.4638C38.3114 28.4638 38.0519 28.2712 38.0074 28.0023C37.8772 27.2219 37.8059 26.4042 37.7899 25.5022C37.7876 25.3577 37.8501 25.2181 37.964 25.1152C38.0775 25.0117 38.2333 24.9536 38.3962 24.9531C39.9805 24.9481 41.8466 24.9288 43.6755 24.822C43.8637 24.811 44.0367 24.8742 44.1607 24.9932C44.2855 25.1119 44.3433 25.2745 44.3182 25.4356C44.2804 25.6776 44.2624 25.9046 44.2624 26.1291C44.2624 26.5317 44.3221 26.9323 44.4458 27.3534C44.5301 27.6423 44.3354 27.9379 44.0102 28.0131C43.6831 28.0875 43.3529 27.9149 43.2681 27.6258C43.1187 27.1144 43.0461 26.6246 43.0461 26.1291C43.0461 26.0657 43.0472 26.0023 43.0497 25.9387C41.6573 26.0041 40.2719 26.0249 39.024 26.0321C39.0538 26.6735 39.1155 27.2703 39.2108 27.8437C39.2604 28.1391 39.031 28.4145 38.6988 28.4583C38.6678 28.4618 38.6377 28.4638 38.6081 28.4638Z" fill="#F5F7FA"/>
<path d="M8.11495 37.5607C7.81404 37.5607 7.55257 37.3623 7.51256 37.0897L7.46578 36.7748C7.35843 36.0487 7.25672 35.363 7.21305 34.6365C7.19558 34.3476 7.43761 34.0976 7.76163 34.0695C8.51026 34.0044 9.26678 33.9262 10.023 33.8478C10.852 33.7621 11.7091 33.6732 12.545 33.6038C12.7048 33.59 12.8665 33.6346 12.9913 33.7268C13.1156 33.819 13.1934 33.9515 13.2075 34.0951C13.2892 34.9183 13.47 35.6544 13.7456 36.2827C13.8676 36.5611 13.7132 36.8748 13.3999 36.9832C13.0883 37.0915 12.7347 36.9542 12.6121 36.6761C12.358 36.0966 12.174 35.445 12.0641 34.7332C11.4307 34.7913 10.7891 34.8577 10.1633 34.9226C9.59728 34.981 9.03151 35.0396 8.46856 35.0927C8.51843 35.6008 8.59366 36.1061 8.67171 36.6335L8.71848 36.9499C8.76215 37.2463 8.52717 37.5176 8.19357 37.5562C8.16736 37.5592 8.14088 37.5607 8.11495 37.5607Z" fill="#F5F7FA"/>
<path d="M21.9291 25.3834C20.4665 25.3834 19.5215 24.4495 19.5215 23.0036C19.5215 21.2449 21.2177 20.1783 23.0133 19.0497C25.3558 17.577 28.0111 15.908 28.0111 12.294C28.0111 8.72438 24.7757 7.11995 23.9409 7.11995C20.8691 7.11995 15.5715 8.79653 11.3153 10.1434C7.82063 11.2493 5.06053 12.1226 3.66132 12.1226C1.74761 12.1226 0.46167 11.3029 0.46167 10.0825C0.46167 7.98756 16.4957 0 25.579 0C30.0539 0 33.477 0.704755 36.7868 1.38646C39.9089 2.02933 42.8578 2.63638 46.5252 2.63638C49.0959 2.63638 51.7081 2.4134 54.2347 2.19744L54.3809 2.18492C54.7142 2.15385 55.0126 2.37432 55.0447 2.6717C55.0768 2.96909 54.8317 3.2334 54.4972 3.26197L54.351 3.27449C51.796 3.49271 49.1545 3.71844 46.5252 3.71844C42.7186 3.71844 39.7041 3.09786 36.5123 2.44046C33.269 1.77253 29.915 1.08206 25.579 1.08206C16.5633 1.08206 2.43651 8.76747 1.67971 10.1316C1.74057 11.0153 3.46183 11.0411 3.66103 11.0411C4.85034 11.0411 7.79217 10.1101 10.9073 9.12423C15.4783 7.67739 20.6589 6.03789 23.9411 6.03789C25.4753 6.03789 29.2281 8.23007 29.2281 12.2937C29.2281 16.4677 26.1718 18.389 23.7163 19.9328C22.0525 20.9785 20.7384 21.8048 20.7384 23.0034C20.7384 23.5956 20.9452 24.3014 21.9294 24.3014C23.2083 24.115 37.1539 17.1579 37.8668 16.6638C40.08 14.8204 42.389 12.898 45.2716 11.7962C45.5819 11.6777 45.9383 11.8052 46.071 12.0795C46.2037 12.3539 46.0611 12.6721 45.7526 12.7901C43.0655 13.8173 40.8354 15.6737 38.6788 17.469C38.29 17.7927 33.2445 20.3071 30.6298 21.5813C22.8265 25.3834 22.1976 25.3834 21.9291 25.3834Z" fill="#F5F7FA"/>
<path d="M46.0023 16.3117C45.7115 16.3117 45.4582 16.1273 45.4044 15.8688C44.7696 12.8012 44.7344 9.65123 44.7003 6.60473C44.6876 5.47757 44.6747 4.31183 44.631 3.17089C44.6194 2.87226 44.8826 2.62197 45.2184 2.61195C45.5571 2.60544 45.8355 2.83568 45.847 3.13432C45.891 4.28828 45.9042 5.46028 45.9166 6.59396C45.9488 9.43177 45.9812 12.361 46.5061 15.1881C46.9676 15.151 47.43 15.1134 47.8935 15.0756C50.4944 14.8636 53.1838 14.6441 55.7768 14.552C55.7847 14.5517 55.7931 14.5517 55.8013 14.5517C56.1262 14.5517 56.3958 14.7799 56.4088 15.0711C56.4223 15.3694 56.1608 15.6212 55.825 15.6333C53.2632 15.7242 50.5899 15.9422 48.0042 16.1531C47.353 16.2062 46.703 16.2593 46.0564 16.3102C46.0384 16.311 46.0201 16.3117 46.0023 16.3117Z" fill="#F5F7FA"/>
<path d="M23.9785 17.0165C21.9662 17.0165 18.2073 15.2231 18.2073 10.9032C18.2073 9.75722 18.482 8.56443 19.0021 7.45355C19.1312 7.17822 19.4862 7.04694 19.7975 7.16218C20.1077 7.27693 20.2545 7.5936 20.1255 7.86944C19.6665 8.84954 19.4242 9.89853 19.4242 10.9032C19.4242 14.4152 22.4401 15.9347 23.9788 15.9347C25.2938 15.9347 25.5693 15.3524 25.7908 14.8849C25.8339 14.7935 25.8728 14.7133 25.9108 14.6489C26.0663 14.3836 26.434 14.2811 26.7313 14.4192C27.0291 14.5572 27.1449 14.8839 26.9897 15.149C26.9646 15.1913 26.9406 15.2447 26.9122 15.3048C26.6693 15.8169 26.1013 17.0165 23.9785 17.0165Z" fill="#F5F7FA"/>
<path d="M26.718 14.5863C25.4861 14.5863 22.7869 13.5959 22.7869 10.6537C22.7869 9.2622 23.3081 7.78429 23.7448 6.78917C23.8671 6.51107 24.2196 6.37303 24.5329 6.48226C24.8457 6.59099 25.0004 6.90441 24.8784 7.18276C24.4791 8.09095 24.0035 9.43056 24.0035 10.6534C24.0035 12.9969 26.1795 13.5043 26.718 13.5043C26.767 13.5043 26.8456 13.4985 26.9628 13.4484C27.2654 13.3189 27.6289 13.4324 27.7743 13.7017C27.9199 13.971 27.7926 14.2942 27.4894 14.4235C27.237 14.5314 26.9777 14.5863 26.718 14.5863Z" fill="#F5F7FA"/>
<path d="M14.0539 26.7326C13.928 26.7326 13.8017 26.698 13.6938 26.6276C9.46662 23.8679 5.60991 20.9993 1.70277 18.058C1.45482 17.8714 1.41566 17.5444 1.61373 17.3154C2.89742 15.8315 4.30227 14.402 5.66091 13.0195C6.35403 12.3143 7.04913 11.6073 7.73437 10.8875C7.84003 10.7762 7.99218 10.7076 8.15531 10.6976C8.32211 10.6865 8.48018 10.7359 8.60275 10.8329C12.3865 13.8242 16.6906 16.8715 21.3951 19.8902C21.5447 19.9864 21.6374 20.138 21.6467 20.3023C21.6558 20.4667 21.5805 20.6255 21.4419 20.7345C19.8122 22.0145 18.1893 23.4065 16.6196 24.7528C15.907 25.3641 15.1928 25.9769 14.4726 26.5845C14.3562 26.6824 14.2052 26.7326 14.0539 26.7326ZM2.9349 17.5677C6.54563 20.2835 10.1268 22.9349 14.0046 25.4871C14.5974 24.9843 15.1869 24.4787 15.7749 23.9742C17.173 22.7749 18.6133 21.5395 20.07 20.3725C15.7614 17.5848 11.7934 14.7745 8.25985 12.0074C7.70196 12.5871 7.13873 13.1598 6.5769 13.7313C5.35633 14.9734 4.09828 16.2534 2.9349 17.5677Z" fill="#F5F7FA"/>
<path d="M15.8098 17.3907C15.6974 17.3907 15.5833 17.3631 15.4819 17.305C15.199 17.1436 15.1167 16.8092 15.2982 16.5576C15.4571 16.3377 15.6078 16.1102 15.7608 15.8804C15.9842 15.5442 16.2128 15.2002 16.4739 14.8618C15.7104 14.4584 15.0144 13.9689 14.3374 13.4921C14.2233 13.4119 14.1097 13.3317 13.995 13.2521C13.3075 13.6146 12.5995 13.9794 11.8833 14.2412C11.5716 14.3557 11.2172 14.2226 11.0893 13.9466C10.9616 13.6702 11.1098 13.3543 11.4209 13.2406C12.1177 12.9858 12.8153 12.617 13.5544 12.2264L13.7307 12.1332C13.9449 12.0202 14.2142 12.0345 14.412 12.1695C14.6405 12.3256 14.8668 12.4844 15.0925 12.6435C15.9411 13.2408 16.7433 13.8048 17.6489 14.1978C17.8157 14.2705 17.9365 14.4068 17.976 14.5684C18.016 14.7297 17.9704 14.8986 17.8529 15.0266C17.4516 15.463 17.1245 15.9548 16.8081 16.4306C16.6478 16.6719 16.4889 16.9104 16.3226 17.1414C16.2063 17.3027 16.0096 17.3907 15.8098 17.3907Z" fill="#F5F7FA"/>
<path d="M4.28029 27.8246C4.27127 27.8246 4.26169 27.8243 4.25267 27.8241C3.91682 27.8108 3.65704 27.5577 3.67253 27.2593C3.77622 25.203 4.63925 23.1175 6.10242 21.3878C6.30444 21.1485 6.6865 21.1012 6.95445 21.2806C7.22297 21.46 7.27678 21.7992 7.07533 22.0379C5.75811 23.5953 4.9813 25.467 4.88804 27.308C4.87282 27.5981 4.60403 27.8246 4.28029 27.8246Z" fill="#F5F7FA"/>
<path d="M4.64123 31.3173C4.444 31.3173 4.25747 31.2321 4.14308 31.0865C3.22257 29.9173 2.24713 28.7683 1.32662 27.692C1.18293 27.5239 1.16236 27.2965 1.27422 27.1101C1.38579 26.9237 1.60246 26.8144 1.84731 26.8247C2.98111 26.8856 4.11603 26.7613 5.21855 26.6421C5.67556 26.5924 6.1306 26.5431 6.58451 26.506C6.80288 26.4877 7.01786 26.5772 7.14268 26.7393C7.26693 26.9014 7.28327 27.1106 7.18494 27.2862C7.04885 27.5287 6.91135 27.7707 6.77385 28.0125C6.22414 28.9805 5.65584 29.9817 5.20559 30.9783C5.12247 31.1627 4.93256 31.2915 4.71054 31.3143C4.68744 31.316 4.66405 31.3173 4.64123 31.3173ZM3.03999 27.9113C3.52715 28.486 4.02136 29.0768 4.50908 29.6773C4.85142 29.0041 5.22475 28.3407 5.59357 27.691C5.51806 27.6991 5.44227 27.7073 5.36619 27.7156C4.61023 27.7975 3.83371 27.8817 3.03999 27.9113Z" fill="#F5F7FA"/>
</g>
<defs>
<clipPath id="clip0">
<rect width="56" height="48" fill="white" transform="translate(0.46167)"/>
</clipPath>
</defs>
</svg>
