<svg width="57" height="48" viewBox="0 0 57 48" fill="none" xmlns="http://www.w3.org/2000/svg">
<path d="M53.2963 39.9676C52.5883 39.9571 51.9775 40.413 51.2659 40.4632C50.3622 40.527 49.5123 40.5975 48.8135 41.217C48.8056 41.224 48.802 41.2327 48.7944 41.2399C48.7771 41.2181 48.7635 41.1959 48.7453 41.1741C47.9876 40.2715 46.7896 40.9224 46.1062 41.5219C44.7107 42.7464 43.5495 43.8605 41.7254 44.4584C40.1053 44.9895 38.3183 45.0134 36.6509 44.6812C35.8373 44.5191 34.9919 44.1082 34.1499 43.791C34.5468 42.8982 33.9724 41.5693 32.8264 41.6856C32.3241 41.7365 31.8252 41.8073 31.3287 41.8914C31.283 41.7995 31.2283 41.709 31.1538 41.6225C29.9851 40.2656 28.548 39.4826 27.602 37.8756C26.5927 36.1612 25.8878 33.9557 24.4708 32.5337C24.4497 32.5126 24.4259 32.5033 24.4024 32.4943C24.5662 32.484 24.729 32.466 24.8884 32.431C25.547 32.2867 25.9667 31.5788 25.8706 30.9498C25.7919 30.4344 25.4804 30.0863 25.0466 29.908C25.0115 29.8038 24.9705 29.6998 24.9159 29.5954C24.6854 29.1539 24.3639 28.7386 24.094 28.3192C23.5418 27.4619 21.9792 27.9966 22.3537 29.0414C22.4527 29.3178 22.5484 29.5959 22.6464 29.8735C22.6218 29.8722 22.5975 29.873 22.573 29.8709C21.9502 29.8213 21.3015 29.7328 20.6882 29.6208C20.3785 29.5642 20.1503 29.8493 20.2899 30.1308C20.9623 31.4857 22.6673 32.536 24.2581 32.503C24.2105 32.527 24.1682 32.565 24.1468 32.6183C23.3256 34.6447 24.6504 40.4742 27.0821 42.8282C25.1263 43.2978 23.1626 43.7344 21.1254 43.7889C19.3295 43.837 17.7601 43.358 16.6478 41.8963C16.076 41.145 15.7742 40.1349 15.0769 39.5325C15.0563 39.4898 15.0401 39.4453 15.0111 39.407C14.9941 39.3843 14.9745 39.3661 14.957 39.3445C15.3727 39.1085 15.6976 38.6966 15.8217 38.0755C16.2914 35.7243 15.6273 33.7249 14.8391 31.5212C14.1523 29.6013 13.7736 26.9429 12.3861 25.4C12.2265 25.2222 11.9515 25.2965 11.8324 25.4702C9.52184 28.8376 12.4711 33.3771 11.697 36.9557C11.4944 37.892 11.8844 38.6359 12.4954 39.0915C12.261 39.2807 12.0642 39.5336 11.9351 39.8498C11.6748 40.4868 11.7751 41.038 11.1688 41.5278C11.0614 41.6146 10.9399 41.6892 10.8131 41.7586C11.4811 41.1545 11.8896 40.3801 11.8036 39.3573C11.7576 38.8103 11.2091 38.4442 10.6892 38.7277C10.2371 38.9742 9.81977 39.1355 9.45729 39.5148C9.0854 39.9038 8.78982 40.315 8.37089 40.6644C7.49095 41.3984 6.50779 41.6727 5.43838 42.0257C4.8846 42.2084 4.88826 42.9458 5.43838 43.1305C6.45395 43.4717 7.6083 43.3328 8.64138 42.9754C8.65053 43.1846 8.76656 43.378 9.02555 43.4218C10.2366 43.6271 11.4145 43.6611 12.5098 43.0122C12.9391 42.7577 13.2935 42.4312 13.5603 42.0211C13.788 42.6581 14.1248 43.2702 14.4319 43.7645C15.4556 45.4135 16.9714 46.6567 18.921 47.0375C21.197 47.4821 23.6567 47.1644 25.9095 46.7249C28.1134 46.295 30.4587 45.7562 32.5583 44.868C33.0326 45.5161 33.7602 46.0529 34.3728 46.4527C35.909 47.4551 37.8243 47.9771 39.6527 47.9993C43.0454 48.0404 47.5569 46.2934 48.9886 43.0263C49.0526 42.8802 49.0968 42.7397 49.1279 42.602C49.1503 42.6111 49.1702 42.6249 49.1937 42.6319C50.1481 42.9193 51.2178 43.2347 52.2261 43.1799C53.3315 43.1197 54.6186 42.4618 54.558 41.2088C54.5243 40.5308 54.0061 39.9782 53.2963 39.9676Z" fill="#32B978"/>
<path d="M54.9629 33.9195C54.8584 33.4906 54.425 33.3448 54.0302 33.3983C52.8128 33.5627 52.1671 34.6196 51.1826 35.2418C50.121 35.9125 48.929 36.1706 47.7384 36.5107C47.2881 36.6394 47.1318 37.3349 47.5993 37.5579C49.8986 38.6537 55.7783 37.2659 54.9629 33.9195Z" fill="#32B978"/>
<path d="M56.3941 27.5142C56.3181 26.8576 55.6867 26.3979 55.0409 26.7498C54.0183 27.3071 53.2782 28.1912 52.2197 28.6973C50.8477 29.3534 49.3627 29.4357 47.91 29.8126C47.2767 29.9771 47.2671 30.9249 47.91 31.085C50.4763 31.7233 56.8588 31.5244 56.3941 27.5142Z" fill="#32B978"/>
<path d="M54.1362 22.8619C53.8134 21.8603 52.5114 22.1582 51.8126 22.4901C50.6217 23.0559 49.5259 23.7485 48.2594 24.1455C47.277 24.4535 47.6839 25.8372 48.6812 25.6522C49.9064 25.4245 54.829 25.0118 54.1362 22.8619Z" fill="#32B978"/>
<path d="M43.8502 31.0237C43.7684 30.4278 43.3644 29.9428 42.7675 29.7867C41.738 29.5173 40.793 30.3975 40.1316 31.0489C39.3355 31.8332 38.6119 32.72 37.8812 33.5622C37.2877 34.2461 36.8133 35.3802 36.0923 35.8853C35.6851 36.1703 35.5147 36.765 35.9276 37.1424C37.3305 38.425 39.1217 36.7611 40.1635 35.8091C41.3324 34.7411 44.0959 32.8111 43.8502 31.0237Z" fill="#32B978"/>
<path d="M45.6878 21.4882C41.1964 18.9866 36.2236 21.2026 32.519 24.0346C30.9087 25.2658 29.7972 26.8193 29.5037 28.8378C29.2285 30.731 29.4284 33.5501 30.8161 35.011C30.94 35.1415 31.1467 35.0656 31.1993 34.9114C31.7186 33.389 31.1277 31.6557 31.2939 30.0651C31.5084 28.0132 32.4333 26.6047 34.1428 25.4397C35.5856 24.4563 37.189 23.4858 38.8848 23.006C40.9949 22.4088 42.8115 22.8321 44.7773 23.6142C46.0335 24.1139 46.8293 22.124 45.6878 21.4882Z" fill="#32B978"/>
<path d="M34.3797 14.3736C33.6004 14.3253 32.8451 14.5859 32.0687 14.6191C31.3306 14.6507 30.6002 14.5705 29.8632 14.634C29.6243 14.6546 29.404 14.8628 29.4166 15.0935C28.0743 15.7942 27.4654 17.5299 26.8821 18.8125C26.493 19.6682 26.1106 20.5438 25.6389 21.3586C25.1949 22.1254 24.6649 22.8543 24.7007 23.7654C24.7007 23.7679 24.7015 23.7702 24.7017 23.7731C24.224 24.2689 23.7776 24.7981 23.268 25.2911C22.278 26.248 21.1305 27.1583 19.9053 27.8C19.5985 27.9605 19.7368 28.4594 20.0833 28.4471C22.6541 28.3547 26.1002 27.0137 26.9621 24.4145C28.1692 23.7224 28.9085 22.0188 29.3084 20.8492C29.5601 20.1136 29.8737 19.2517 30.1131 18.3684C30.1951 18.4373 30.2895 18.496 30.3992 18.5395C30.7766 18.689 31.3118 18.6486 31.5938 18.3169C31.7744 18.1046 31.9422 17.8836 32.0065 17.6073C32.0648 17.357 32.0548 17.216 32.0857 17.0248C32.087 17.0166 32.0875 17.0091 32.0888 17.0009C33.0035 17.2713 33.9697 17.3181 34.7453 17.0335C36.1913 16.5027 35.9757 14.4727 34.3797 14.3736Z" fill="#32B978"/>
<path d="M4.30627 44.7778C4.18344 44.7778 4.06244 44.7384 3.96287 44.6633C3.82227 44.557 3.74021 44.3916 3.74204 44.2168C3.74386 44.028 3.74465 43.8394 3.74465 43.6508C3.74465 40.3958 3.49716 37.1066 3.25803 33.9254C3.10018 31.8282 2.93684 29.6592 2.84668 27.5239C2.83387 27.2172 3.07588 26.9587 3.38713 26.9455C3.70832 26.9301 3.9613 27.1709 3.97463 27.4776C4.06401 29.5951 4.22656 31.7546 4.38337 33.8431C4.6204 36.9905 4.86502 40.243 4.87312 43.4838C7.68986 42.6636 9.77876 41.7507 11.5292 40.5769C10.8591 35.552 10.4862 30.0863 10.3916 23.8987C9.16539 23.9648 7.93892 23.9985 6.73675 23.9985C4.94551 23.9985 3.18067 23.928 1.34083 23.7829C1.03036 23.7582 0.798547 23.4906 0.823636 23.1847C0.848725 22.8795 1.11869 22.656 1.43125 22.6755C3.24052 22.818 4.97609 22.8875 6.73701 22.8875C8.10879 22.8875 9.5135 22.843 10.9122 22.7555C11.0638 22.7447 11.2177 22.799 11.3314 22.9027C11.4448 23.0061 11.5104 23.1507 11.5122 23.303C11.593 29.8249 11.9795 35.5368 12.6932 40.7655C12.7212 40.9698 12.6318 41.1728 12.4614 41.2922C10.4 42.7364 7.9316 43.8049 4.45837 44.7577C4.40767 44.7708 4.35697 44.7778 4.30627 44.7778Z" fill="#F5F7FA"/>
<path d="M13.0998 23.3575C12.907 23.3575 12.7186 23.2597 12.6135 23.084C12.4551 22.82 12.5445 22.4793 12.8129 22.3234C15.8178 20.5787 17.8225 17.9921 19.9449 15.2538C21.6593 13.0418 23.4317 10.7547 25.7705 8.97891C29.3495 6.26035 33.7398 6.1384 37.9853 6.02004L38.9672 5.99174C39.0769 5.98814 39.1893 5.98299 39.3032 5.9781C39.5366 5.96807 39.7752 5.95752 40.0123 5.95752C41.8971 5.95752 42.978 6.92494 42.978 8.6115C42.978 9.0983 42.8862 9.56297 42.7835 10.0356C41.9841 13.7216 40.024 13.9843 36.1188 14.5076C34.7904 14.6857 33.1374 14.9072 31.1677 15.3045C29.9067 15.5602 28.8232 15.2589 28.1241 14.4559C27.9213 14.2231 27.9485 13.8721 28.185 13.6725C28.422 13.473 28.7775 13.5003 28.9808 13.7324C29.4157 14.2326 30.0776 14.3911 30.9411 14.2156C32.9479 13.8111 34.6218 13.587 35.9667 13.4067C39.8688 12.8841 41.0464 12.7261 41.6801 9.80379C41.7695 9.39187 41.8495 8.98998 41.8495 8.6115C41.8495 7.89314 41.6409 7.06877 40.0123 7.06877C39.7922 7.06877 39.5706 7.0788 39.3539 7.08832C39.2353 7.09373 39.1182 7.09887 39.0035 7.10247L38.0172 7.13103C33.7646 7.24939 29.7486 7.3608 26.4596 9.8586C24.239 11.5449 22.5121 13.7731 20.8421 15.9279C18.7474 18.6305 16.5812 21.4255 13.386 23.2805C13.2959 23.333 13.1973 23.3575 13.0998 23.3575Z" fill="#F5F7FA"/>
<path d="M39.5119 45.1495C39.4335 45.1495 39.3553 45.1488 39.2767 45.1477C31.2971 45.0178 24.8548 38.3652 24.9157 30.3179C24.9432 26.4119 26.4736 22.7921 29.2247 20.126C32.0469 17.3899 35.9595 15.8428 39.9293 15.8748C40.7297 15.8812 41.5331 15.9522 42.3174 16.0852C45.0471 16.5496 47.5643 17.6604 49.5965 19.2973C49.8375 19.4915 49.8733 19.8414 49.676 20.0792C49.4787 20.3164 49.1235 20.3511 48.8818 20.1574C47.0001 18.6417 44.6637 17.612 42.1258 17.1805C41.4019 17.0573 40.6597 16.9917 39.9204 16.986C36.2263 16.9492 32.6269 18.3875 30.0166 20.918C27.4803 23.3759 26.0698 26.7171 26.0444 30.3261C25.988 37.7665 31.9322 43.9174 39.2952 44.037C42.2006 44.0818 44.9711 43.2147 47.3446 41.5269C47.597 41.3468 47.9496 41.4026 48.1322 41.6519C48.3149 41.9004 48.2579 42.2475 48.0052 42.4274C45.4971 44.2107 42.5649 45.1495 39.5119 45.1495Z" fill="#F5F7FA"/>
<path d="M39.5628 41.7157C39.5022 41.7157 39.4416 41.715 39.3809 41.7142C33.2716 41.6149 28.3398 36.5231 28.3866 30.3642C28.4077 27.3747 29.5793 24.6037 31.6857 22.5621C33.8225 20.4911 36.768 19.3083 39.7795 19.3083C39.8127 19.3083 39.8448 19.3083 39.8775 19.3086C40.4898 19.3138 41.1047 19.368 41.7053 19.4699C42.811 19.6583 43.8768 19.9863 44.8722 20.4456C45.1547 20.5758 45.2763 20.9064 45.144 21.184C45.0118 21.4619 44.6749 21.5818 44.394 21.4516C43.489 21.0343 42.5196 20.7358 41.5132 20.5647C40.9728 20.4726 40.4192 20.4237 39.8678 20.4193C39.8385 20.4191 39.8087 20.4191 39.7792 20.4191C37.0613 20.4191 34.4045 21.4856 32.4771 23.3535C30.586 25.1867 29.5338 27.6794 29.5148 30.3719C29.4724 35.9238 33.9064 40.5137 39.3987 40.6029C40.9654 40.6325 42.4595 40.3027 43.8569 39.6389C44.1368 39.5051 44.4747 39.6211 44.6104 39.8974C44.746 40.1738 44.6284 40.5057 44.3477 40.6392C42.8453 41.3537 41.2359 41.7157 39.5628 41.7157Z" fill="#F5F7FA"/>
<path d="M50.2086 26.0692C47.6893 26.0692 46.0117 25.4301 46.0117 22.3119C46.0117 20.2253 47.9344 18.9797 51.1547 18.9797C54.5908 18.9797 55.3641 20.877 55.3641 21.5416C55.3641 21.6245 55.3594 21.7068 55.3544 21.7871C55.351 21.8408 55.3474 21.8931 55.3474 21.9427C55.3474 21.9435 55.3484 21.9795 55.3484 21.9803C55.363 22.1846 55.3727 22.3968 55.3727 22.6104C55.373 24.7457 54.5087 26.0692 50.2086 26.0692ZM51.1547 20.0905C50.2128 20.0905 47.1402 20.2508 47.1402 22.3117C47.1402 24.3891 47.8001 24.9579 50.2086 24.9579C54.2442 24.9579 54.2442 23.8176 54.2442 22.6101C54.2442 22.4236 54.2353 22.2376 54.2231 22.059C54.2202 22.0215 54.2189 21.9823 54.2189 21.9425C54.2189 21.872 54.2231 21.7971 54.2278 21.7202C54.2314 21.662 54.2356 21.6016 54.2356 21.5416C54.227 21.2542 53.6528 20.0905 51.1547 20.0905Z" fill="#F5F7FA"/>
<path d="M50.0573 32.0519C46.7022 32.0519 45.2061 31.1005 45.2061 28.9667C45.2061 26.232 48.1799 25.1181 50.9624 24.9882C51.2828 24.9707 51.5381 25.2105 51.5527 25.5167C51.5679 25.8231 51.3272 26.0835 51.0159 26.0979C50.2343 26.1344 46.3343 26.4447 46.3343 28.967C46.3343 29.7054 46.3343 30.9412 50.0571 30.9412C51.6249 30.9412 55.6934 30.4943 55.6934 28.4521C55.6934 27.443 55.0043 26.2248 54.1486 26.2248C53.8371 26.2248 53.5844 25.976 53.5844 25.6693C53.5844 25.3626 53.8371 25.1138 54.1486 25.1138C55.7237 25.1138 56.8219 26.8731 56.8219 28.4521C56.8222 31.2939 52.5701 32.0519 50.0573 32.0519Z" fill="#F5F7FA"/>
<path d="M49.3271 38.632C47.3085 38.632 44.9512 37.8414 44.9512 35.6132C44.9512 32.1022 49.4719 31.6198 52.1728 31.3319L52.5539 31.2907C52.8058 31.2632 53.0509 31.249 53.2814 31.249C55.7166 31.249 56.0451 32.7189 56.0451 34.1567C56.0451 37.81 51.0697 38.632 49.3271 38.632ZM53.2817 32.3603C53.0925 32.3603 52.8897 32.3718 52.6788 32.3953L52.2946 32.4364C49.0192 32.7858 46.0796 33.2914 46.0796 35.6132C46.0796 37.4292 48.7848 37.5211 49.3271 37.5211C50.5078 37.5211 54.9166 36.9501 54.9166 34.1569C54.9166 32.7128 54.5957 32.3603 53.2817 32.3603Z" fill="#F5F7FA"/>
<path d="M50.6617 43.4832C49.5071 43.4832 46.8032 43.4831 46.8032 40.7841C46.8032 39.5718 47.6283 38.2894 48.8561 37.5924C49.1258 37.4396 49.4707 37.5302 49.6268 37.7965C49.7823 38.0622 49.6895 38.4019 49.4195 38.5552C48.5435 39.052 47.9317 39.969 47.9317 40.7841C47.9317 41.8141 48.3666 42.3722 50.6614 42.3722C52.2924 42.3722 53.9381 41.6113 53.9381 39.9117C53.9381 39.2777 53.6694 38.487 52.9163 38.1693C52.6298 38.0483 52.4971 37.7218 52.6199 37.4399C52.7425 37.1581 53.0752 37.0272 53.3608 37.1481C54.6202 37.6794 55.0668 38.9689 55.0668 39.9119C55.0671 42.0145 53.2555 43.4832 50.6617 43.4832Z" fill="#F5F7FA"/>
<path d="M39.8617 32.3342C39.8392 32.3342 39.817 32.334 39.7945 32.3335C38.5664 32.3034 37.2139 31.3171 37.1713 29.7756C37.1387 28.6283 37.7951 27.6016 38.8429 27.1599C38.8431 27.1599 38.8431 27.1599 38.8431 27.1599C39.1355 27.0367 39.4425 26.9693 39.7561 26.96C40.4551 26.9289 41.1867 27.2222 41.7464 27.7403C42.2834 28.2375 42.6027 28.8858 42.6218 29.5194C42.645 30.284 42.361 30.9981 41.8224 31.5306C41.304 32.0435 40.5925 32.3342 39.8617 32.3342ZM39.2868 28.1809C38.6576 28.4464 38.2792 29.0455 38.2988 29.7448C38.3265 30.7282 39.2241 31.2083 39.8225 31.2227C40.2635 31.2322 40.7059 31.0603 41.0229 30.7467C41.3406 30.4324 41.5081 30.0084 41.4945 29.5521C41.4843 29.2166 41.2897 28.8418 40.974 28.5498C40.6307 28.2319 40.1995 28.0592 39.7916 28.0701C39.6189 28.0755 39.4491 28.1125 39.2868 28.1809Z" fill="#F5F7FA"/>
<path d="M34.5566 37.5252C34.4037 37.5252 34.2825 37.4663 34.1544 37.3762C33.5865 36.9779 33.8649 36.3342 34.6915 34.4225C35.2902 33.0367 36.1108 31.1386 36.7817 28.9089C36.8705 28.6146 37.1865 28.4479 37.4829 28.5338C37.7818 28.621 37.9522 28.9303 37.8639 29.2241C37.1745 31.5148 36.3395 33.4466 35.7295 34.8573C35.5827 35.1977 35.4332 35.5427 35.3077 35.8471C36.3863 34.9991 38.3333 33.2649 40.6318 31.2171C40.8625 31.0118 41.2195 31.0283 41.4289 31.2562C41.6379 31.4837 41.6202 31.8351 41.3891 32.041C36.4581 36.4337 35.2142 37.5249 34.5566 37.5252Z" fill="#F5F7FA"/>
<path d="M18.6619 29.7347C18.548 29.7347 18.4338 29.7329 18.3188 29.7283C18.0073 29.7157 17.7653 29.4571 17.7781 29.1504C17.7909 28.844 18.0569 28.6011 18.365 28.6181C21.1786 28.7297 23.588 27.3005 25.5684 25.9077C25.8222 25.7297 26.1742 25.7876 26.3556 26.0369C26.5367 26.2867 26.4779 26.6336 26.2244 26.8119C24.2891 28.1727 21.6802 29.7347 18.6619 29.7347Z" fill="#F5F7FA"/>
<path d="M30.5983 19.5837C30.2869 19.5837 30.0342 19.3349 30.0342 19.0283C30.0342 17.1663 30.8194 15.4543 32.1891 14.3311C32.4287 14.1348 32.7841 14.1665 32.9835 14.4024C33.1828 14.638 33.1507 14.9881 32.9111 15.1844C31.7998 16.0961 31.1625 17.4971 31.1625 19.0283C31.1627 19.3347 30.9101 19.5837 30.5983 19.5837Z" fill="#F5F7FA"/>
<path d="M35.5875 17.0214C35.536 17.0214 35.484 17.0144 35.4318 17C35.1323 16.9154 34.9591 16.608 35.0445 16.3129C35.1242 16.0387 35.1584 15.765 35.1584 15.3981C35.1584 15.2348 35.1522 15.0717 35.1459 14.905C35.1386 14.7185 35.1315 14.5281 35.1315 14.3308C35.1315 14.0242 35.3842 13.7754 35.6957 13.7754C36.0071 13.7754 36.2598 14.0242 36.2598 14.3308C36.2598 14.5137 36.2669 14.6907 36.2731 14.8638C36.2802 15.0442 36.2867 15.2211 36.2867 15.3984C36.2867 15.7148 36.2687 16.1395 36.1294 16.619C36.0586 16.8627 35.8328 17.0214 35.5875 17.0214Z" fill="#F5F7FA"/>
<path d="M40.1428 16.701C39.8313 16.701 39.5786 16.4523 39.5786 16.1456V13.6899C39.5786 13.3833 39.8313 13.1345 40.1428 13.1345C40.4542 13.1345 40.7069 13.3833 40.7069 13.6899V16.1456C40.7069 16.4523 40.4542 16.701 40.1428 16.701Z" fill="#F5F7FA"/>
<path d="M20.7113 44.0306C15.9931 44.0306 15.2882 41.9797 15.0776 38.7944C13.9282 38.929 12.9129 39.0306 11.8754 39.0893C11.5576 39.106 11.2973 38.8727 11.2798 38.5667C11.2617 38.2603 11.4996 37.9979 11.8106 37.9804C12.9939 37.9132 14.1564 37.7879 15.5381 37.6204C15.6957 37.6006 15.8506 37.6477 15.9703 37.7467C16.0905 37.8461 16.1632 37.9904 16.1705 38.145C16.3443 41.682 16.758 42.9196 20.7111 42.9196C22.2734 42.9196 23.769 42.6968 25.3525 42.4606C26.5437 42.2831 27.7756 42.0994 29.0285 42.0222C29.3471 42.0034 29.6074 42.236 29.627 42.5419C29.6463 42.8484 29.4103 43.1118 29.0991 43.1311C27.8956 43.2052 26.6885 43.3851 25.5213 43.559C23.9666 43.7908 22.3586 44.0306 20.7113 44.0306Z" fill="#F5F7FA"/>
<path d="M23.9816 6.66351C23.9092 6.66351 23.8358 6.64987 23.765 6.6208C23.4773 6.50298 23.3414 6.17756 23.4613 5.89433C24.152 4.2631 25.3176 3.12657 26.7443 2.69464C27.0424 2.60512 27.3581 2.76873 27.4495 3.062C27.5413 3.35526 27.3743 3.66628 27.0764 3.75632C25.5914 4.20625 24.8269 5.55682 24.5031 6.32188C24.4125 6.53514 24.2026 6.66351 23.9816 6.66351Z" fill="#F5F7FA"/>
<path d="M20.8372 5.27602C20.7962 5.27602 20.7539 5.27164 20.7121 5.26238C20.4079 5.19446 20.2176 4.89677 20.2866 4.59754C20.7667 2.51732 22.6938 1.04818 26.0144 0.230501C26.3176 0.156401 26.6236 0.336763 26.6989 0.634451C26.7744 0.932139 26.5909 1.23369 26.2886 1.3083C23.4143 2.01612 21.7653 3.20558 21.3874 4.84351C21.3275 5.10132 21.0952 5.27602 20.8372 5.27602Z" fill="#F5F7FA"/>
<path d="M45.5663 6.1294C45.375 6.1294 45.1879 6.03319 45.0821 5.85955C44.3991 4.73896 43.7463 3.7825 42.6763 3.43136C42.3805 3.33437 42.2211 3.01976 42.3197 2.7288C42.4176 2.43811 42.7377 2.27964 43.0333 2.37766C44.5862 2.88701 45.432 4.27488 46.0494 5.28819C46.2099 5.5511 46.1234 5.89248 45.8558 6.05017C45.7651 6.10419 45.6651 6.1294 45.5663 6.1294Z" fill="#F5F7FA"/>
<path d="M48.8199 5.70195C48.5981 5.70195 48.3877 5.57255 48.2981 5.358C47.6135 3.72112 46.5994 1.75469 44.8194 1.07349C44.5294 0.962103 44.3854 0.640282 44.498 0.354219C44.6115 0.0681565 44.9391 -0.0730741 45.2286 0.0378009C47.4073 0.872322 48.5709 3.09343 49.3412 4.93508C49.4598 5.21883 49.3224 5.54323 49.0344 5.66002C48.9642 5.68857 48.891 5.70195 48.8199 5.70195Z" fill="#F5F7FA"/>
</svg>
