<svg width="100" height="94" fill="none" xmlns="http://www.w3.org/2000/svg"><rect width="100" height="94" rx="15" fill="#2A9D66"/><g clip-path="url(#clip0)" fill-rule="evenodd" clip-rule="evenodd" fill="#F5F7FA"><path d="M48.53 15.25a2.06 2.06 0 012.107 0L75.244 29.9a2.06 2.06 0 011.006 1.769v29.41a2.06 2.06 0 01-1.006 1.769L52.696 76.272c-1.373.817-3.113-.172-3.113-1.77v-4.279a2.06 2.06 0 011.006-1.769l17.036-10.142a2.06 2.06 0 001.006-1.77V36.204a2.06 2.06 0 00-1.005-1.77l-22.682-13.51c-1.34-.8-1.34-2.74 0-3.539l3.586-2.135z"/><path d="M22.917 61.078a2.06 2.06 0 001.006 1.77l3.5 2.084c1.373.817 3.113-.172 3.113-1.77V36.205a2.06 2.06 0 011.006-1.769l1.766-1.051a2.06 2.06 0 012.107 0l16.973 10.112a2.06 2.06 0 011.005 1.77V55.1c0 1.594 1.732 2.583 3.105 1.775l3.5-2.062a2.06 2.06 0 001.014-1.775V40.73a2.06 2.06 0 00-1.005-1.77L35.41 24.314a2.06 2.06 0 00-2.107 0l-9.38 5.586a2.06 2.06 0 00-1.006 1.77v29.41z"/><path d="M38.155 70.15a2.06 2.06 0 001.006 1.77l3.5 2.084c1.373.817 3.113-.172 3.113-1.77v-6.741a2.06 2.06 0 00-1.006-1.77l-3.5-2.083c-1.373-.816-3.113.173-3.113 1.77v6.74zM37.5 51.548c0 .801.465 1.53 1.192 1.868l3.5 1.625a2.06 2.06 0 002.927-1.868v-4.456a2.06 2.06 0 00-1.192-1.867l-3.5-1.625a2.06 2.06 0 00-2.927 1.868v4.455z"/></g><defs><clipPath id="clip0"><path fill="#fff" transform="translate(22.917 14.622)" d="M0 0h53.333v63.502H0z"/></clipPath></defs></svg>