<svg width="644" height="764" fill="none" xmlns="http://www.w3.org/2000/svg"><g opacity=".01" clip-path="url(#clip0)" fill-rule="evenodd" clip-rule="evenodd" fill="#F5F7FA"><path d="M308.848 7.618a25.13 25.13 0 0125.661 0l296.553 176.078a25.133 25.133 0 0112.301 21.61v353.388a25.133 25.133 0 01-12.301 21.61L359.641 741.46c-16.753 9.947-37.962-2.127-37.962-21.61v-50.687a25.133 25.133 0 0112.301-21.61l205.172-121.821a25.131 25.131 0 0012.301-21.609V259.872a25.13 25.13 0 00-12.295-21.605L266.254 76.12c-16.396-9.741-16.392-33.479.006-43.215l42.588-25.287z"/><path d="M0 558.695a25.132 25.132 0 0012.3 21.61l41.647 24.727c16.752 9.947 37.962-2.127 37.962-21.609V259.878a25.13 25.13 0 0112.301-21.609l21.015-12.478a25.133 25.133 0 0125.668.005l204.452 121.486a25.13 25.13 0 0112.293 21.605v117.529c0 19.431 21.108 31.511 37.861 21.669l41.647-24.466a25.131 25.131 0 0012.402-21.669V314.32c0-8.869-4.674-17.08-12.299-21.609l-296.414-176.03a25.13 25.13 0 00-25.663-.001L12.3 183.697A25.132 25.132 0 000 205.307v353.388z"/><path d="M183.823 667.84a25.133 25.133 0 0012.301 21.61l41.647 24.728c16.752 9.947 37.962-2.127 37.962-21.61v-80.317a25.13 25.13 0 00-12.306-21.612l-41.646-24.716c-16.753-9.942-37.958 2.132-37.958 21.612v80.305zm-7.903-223.831c0 9.791 5.686 18.69 14.571 22.805l41.647 19.287c16.655 7.714 35.692-4.449 35.692-22.804v-52.85a25.132 25.132 0 00-14.574-22.807l-41.647-19.278c-16.655-7.709-35.689 4.454-35.689 22.807v52.84z"/></g><defs><clipPath id="clip0"><path fill="#fff" d="M0 0h643.368v764H0z"/></clipPath></defs></svg>