<svg width="114" height="45" fill="none" xmlns="http://www.w3.org/2000/svg"><rect width="48" height="45" rx="8" fill="#2A9D66"/><g clip-path="url(#clip0)" fill-rule="evenodd" clip-rule="evenodd" fill="#F5F7FA"><path d="M23.29 7.303a1 1 0 011.02 0l11.8 7.006a1 1 0 01.49.86v14.062a1 1 0 01-.49.86l-10.8 6.412a1 1 0 01-1.51-.86v-2.017a1 1 0 01.49-.86l8.163-4.847a1 1 0 00.49-.86V17.34a1 1 0 00-.49-.86l-10.857-6.45a1 1 0 010-1.72l1.695-1.006z"/><path d="M11 29.23a1 1 0 00.49.86l1.657.985a1 1 0 001.51-.86V17.34a1 1 0 01.49-.86l.836-.497a1 1 0 011.021 0l8.135 4.835a1 1 0 01.49.86v4.676a1 1 0 001.506.862l1.657-.973a1 1 0 00.494-.863v-5.874a1 1 0 00-.49-.86l-11.794-7.004a1 1 0 00-1.021 0l-4.492 2.666a1 1 0 00-.489.86V29.23z"/><path d="M18.314 33.574a1 1 0 00.49.86l1.657.983a1 1 0 001.51-.86v-3.195a1 1 0 00-.489-.86l-1.657-.984a1 1 0 00-1.51.86v3.196zM18 24.667a1 1 0 00.58.908l1.657.767a1 1 0 001.42-.907v-2.103a1 1 0 00-.58-.908l-1.657-.767a1 1 0 00-1.42.908v2.102z"/></g><path d="M70.426 23h-5.85v-1.548l1.566-.72v-8.316l-1.566-.72v-1.548h5.85v1.548l-1.566.72v8.316l1.566.72V23zm12.846-6.552c0 2.172-.618 3.81-1.854 4.914C80.194 22.454 78.472 23 76.252 23h-3.636V10.148h4.032c1.344 0 2.508.24 3.492.72a5.2 5.2 0 012.304 2.124c.552.924.828 2.076.828 3.456zm-2.826.072c0-1.428-.312-2.472-.936-3.132-.624-.672-1.53-1.008-2.718-1.008h-1.458v8.37h1.17c2.628 0 3.942-1.41 3.942-4.23zM91.376 23L88.28 12.92h-.072l.054 1.08c.024.48.048.996.072 1.548.024.54.036 1.032.036 1.476V23h-2.43V10.148h3.708l3.042 9.828h.054l3.222-9.828h3.708V23h-2.538v-6.084c0-.408.006-.876.018-1.404.024-.528.042-1.026.054-1.494l.054-1.08h-.072L93.878 23h-2.502zm19.411 0l-.936-3.06h-4.68l-.936 3.06h-2.934l4.536-12.906h3.33L113.721 23h-2.934zm-2.52-8.334c-.06-.204-.138-.462-.234-.774s-.192-.63-.288-.954a20.75 20.75 0 01-.234-.846c-.06.24-.144.54-.252.9-.096.348-.192.684-.288 1.008-.084.312-.15.534-.198.666l-.918 2.988h3.348l-.936-2.988zM64.837 36v-6.426h1.152v5.454h2.682V36h-3.834zm8.471 0h-1.152v-5.454h-1.845v-.972h4.842v.972h-1.845V36zm9.48-3.276c0 1.086-.303 1.905-.909 2.457-.606.546-1.452.819-2.538.819h-1.809v-6.426h1.998c.66 0 1.233.12 1.72.36.491.24.87.594 1.133 1.062.27.462.405 1.038.405 1.728zm-1.206.036c0-.768-.177-1.332-.53-1.692-.349-.36-.856-.54-1.522-.54h-.846v4.509h.693c1.47 0 2.205-.759 2.205-2.277z" fill="#F5F7FA"/><defs><clipPath id="clip0"><path fill="#fff" transform="translate(11 7)" d="M0 0h25.6v30.4H0z"/></clipPath></defs></svg>